<svg width="22" height="27" viewBox="0 0 22 27" fill="none" xmlns="http://www.w3.org/2000/svg">
<path d="M19.2243 27H2.7757C2.39968 27.0005 2.0275 26.9264 1.68179 26.7824C1.33608 26.6383 1.02408 26.4273 0.764755 26.1621C0.505432 25.8969 0.304212 25.5831 0.173337 25.2397C0.0424617 24.8964 -0.0153335 24.5308 0.00346772 24.165L0.751971 8.649C0.78295 7.95339 1.08864 7.29632 1.60522 6.81501C2.12179 6.33369 2.80931 6.06535 3.52421 6.066H18.4758C19.1907 6.06535 19.8782 6.33369 20.3948 6.81501C20.9114 7.29632 21.2171 7.95339 21.248 8.649L21.9965 24.165C22.0153 24.5308 21.9575 24.8964 21.8267 25.2397C21.6958 25.5831 21.4946 25.8969 21.2352 26.1621C20.9759 26.4273 20.6639 26.6383 20.3182 26.7824C19.9725 26.9264 19.6003 27.0005 19.2243 27ZM3.52421 7.875C3.27913 7.875 3.04408 7.96982 2.87078 8.1386C2.69749 8.30739 2.60013 8.5363 2.60013 8.775L1.85162 24.255C1.84536 24.3769 1.86462 24.4988 1.90825 24.6132C1.95187 24.7277 2.01895 24.8323 2.10539 24.9207C2.19183 25.0091 2.29583 25.0794 2.41107 25.1275C2.5263 25.1755 2.65036 25.2001 2.7757 25.2H19.2243C19.3496 25.2001 19.4737 25.1755 19.5889 25.1275C19.7042 25.0794 19.8082 25.0091 19.8946 24.9207C19.9811 24.8323 20.0481 24.7277 20.0918 24.6132C20.1354 24.4988 20.1546 24.3769 20.1484 24.255L19.3999 8.739C19.3999 8.5003 19.3025 8.27139 19.1292 8.1026C18.9559 7.93382 18.7209 7.839 18.4758 7.839L3.52421 7.875Z" fill="white"/>
<path d="M16.5445 6.975H14.6963V5.4C14.6963 4.44522 14.3069 3.52955 13.6137 2.85442C12.9205 2.17928 11.9803 1.8 11 1.8C10.0197 1.8 9.0795 2.17928 8.38631 2.85442C7.69312 3.52955 7.30369 4.44522 7.30369 5.4V6.975H5.45553V5.4C5.45553 3.96783 6.03968 2.59432 7.07947 1.58162C8.11926 0.568927 9.52952 0 11 0C12.4705 0 13.8807 0.568927 14.9205 1.58162C15.9603 2.59432 16.5445 3.96783 16.5445 5.4V6.975Z" fill="white"/>
</svg>
