<svg width="32" height="32" viewBox="0 0 32 32" fill="none" xmlns="http://www.w3.org/2000/svg">
<mask id="path-1-outside-1_213_1393" maskUnits="userSpaceOnUse" x="0" y="0" width="32" height="32" fill="black">
<rect fill="white" width="32" height="32"/>
<path d="M28.1849 7.25107C28.4811 6.84473 28.6565 6.34492 28.6565 5.80469C28.6565 4.44771 27.5526 3.34375 26.1956 3.34375C25.6554 3.34375 25.1556 3.51918 24.7492 3.81543C22.1905 1.9723 19.176 1 16 1C12.8844 1 9.89676 1.94641 7.35994 3.73686C7.09557 3.92348 7.03252 4.28904 7.21914 4.55348C7.40576 4.81785 7.77139 4.8809 8.03576 4.69428C9.73029 3.49826 11.6436 2.71129 13.6618 2.36846C13.4269 2.66693 13.1909 3.02617 12.958 3.45883C12.2471 4.77947 11.6605 6.59816 11.2516 8.74152C10.1758 8.81887 9.28955 9.5902 9.03959 10.6094H3.26213C3.60268 9.80553 4.02057 9.03168 4.51381 8.29768C4.69428 8.02908 4.62279 7.66504 4.3542 7.48457C4.08561 7.30404 3.72156 7.37553 3.54109 7.64412C1.87867 10.1182 1 13.0076 1 16C1 19.1749 1.97236 22.1901 3.81525 24.7492C3.51912 25.1554 3.34375 25.6552 3.34375 26.1953C3.34375 27.5523 4.44771 28.6562 5.80469 28.6562C6.34486 28.6562 6.84461 28.4809 7.2509 28.1847C9.8098 30.0277 12.8248 31 16 31C20.0066 31 23.7735 29.4397 26.6066 26.6066C29.4397 23.7735 31 20.0066 31 16C31 12.8243 30.0278 9.80986 28.1849 7.25107ZM29.1692 20.2188H22.9209C22.7202 19.4005 22.1095 18.7421 21.3197 18.4741C21.3659 17.6601 21.3906 16.8307 21.3906 16C21.3906 14.5512 21.3204 13.1336 21.1851 11.7813H29.1764C29.6069 13.1287 29.8281 14.546 29.8281 16C29.8281 17.4707 29.5964 18.8881 29.1692 20.2188ZM16 29.8281C15.0183 29.8281 13.956 28.3997 13.1584 26.007C12.7114 24.6658 12.3656 23.0992 12.1322 21.3907H18.1411C18.3287 22.1556 18.8744 22.7811 19.59 23.0784C18.6987 27.7357 17.1616 29.8281 16 29.8281ZM5.80469 23.7344C5.41287 23.7344 5.04238 23.8269 4.71326 23.9905C4.13061 23.1702 3.64457 22.2999 3.25879 21.3906H10.9507C11.1943 23.2344 11.5638 24.9289 12.0467 26.3775C12.511 27.7705 13.0517 28.8602 13.654 29.6313C11.6243 29.2871 9.7092 28.4942 8.00951 27.2868C8.17311 26.9576 8.26562 26.5871 8.26562 26.1953C8.26562 24.8383 7.16166 23.7344 5.80469 23.7344ZM11.7812 16C11.7812 15.2005 11.8047 14.4027 11.8486 13.6198C12.814 13.4533 13.5883 12.7231 13.8193 11.7812H20.0076C20.1466 13.1284 20.2188 14.5468 20.2188 16C20.2188 16.7969 20.1954 17.5922 20.1517 18.373C19.1678 18.5259 18.3753 19.2638 18.1411 20.2188H11.9923C11.8535 18.8716 11.7812 17.4532 11.7812 16ZM20.531 22.0938C19.8202 22.0938 19.2419 21.5155 19.2419 20.8047C19.2419 20.0939 19.8202 19.5156 20.531 19.5156C21.2418 19.5156 21.8201 20.0939 21.8201 20.8047C21.8201 21.5155 21.2418 22.0938 20.531 22.0938ZM19.9533 5.62246C19.489 4.22939 18.9483 3.13967 18.3459 2.36857C20.3759 2.71281 22.291 3.50559 23.9908 4.7132C23.8272 5.04238 23.7347 5.41287 23.7347 5.80469C23.7347 7.16166 24.8386 8.26562 26.1956 8.26562C26.5874 8.26562 26.9579 8.17311 27.287 8.00957C27.8697 8.82977 28.3556 9.70023 28.7413 10.6094H21.0493C20.8057 8.76561 20.4361 7.07107 19.9533 5.62246ZM27.4847 5.80469C27.4847 6.51549 26.9064 7.09375 26.1956 7.09375C25.4848 7.09375 24.9065 6.51549 24.9065 5.80469C24.9065 5.09389 25.4848 4.51562 26.1956 4.51562C26.9064 4.51562 27.4847 5.09389 27.4847 5.80469ZM16 2.17188C16.9817 2.17188 18.044 3.60033 18.8416 5.99301C19.2886 7.33416 19.6344 8.9009 19.8678 10.6094H13.8194C13.635 9.85756 13.1045 9.24051 12.407 8.93734C13.2976 4.2693 14.8361 2.17188 16 2.17188ZM11.4295 9.90631C12.1403 9.90631 12.7185 10.4846 12.7185 11.1954C12.7185 11.9062 12.1403 12.4844 11.4295 12.4844C10.7187 12.4844 10.1404 11.9062 10.1404 11.1954C10.1404 10.4846 10.7187 9.90631 11.4295 9.90631ZM9.03959 11.7813C9.24356 12.6129 9.87098 13.2797 10.6796 13.5391C10.6339 14.3487 10.6094 15.1736 10.6094 16C10.6094 17.4488 10.6796 18.8665 10.8149 20.2188H2.82385C2.39324 18.8712 2.17188 17.4538 2.17188 16C2.17188 14.5537 2.39482 13.1337 2.82736 11.7813H9.03959ZM4.51562 26.1953C4.51562 25.4845 5.09389 24.9062 5.80469 24.9062C6.51549 24.9062 7.09375 25.4845 7.09375 26.1953C7.09375 26.9061 6.51549 27.4844 5.80469 27.4844C5.09389 27.4844 4.51562 26.9061 4.51562 26.1953ZM18.3401 29.6291C18.5729 29.3329 18.8069 28.9771 19.0378 28.5491C19.7508 27.2274 20.3393 25.4045 20.7491 23.2554C21.8068 23.162 22.6741 22.3971 22.9209 21.3906H28.7339C26.9225 25.6534 23.0306 28.8262 18.3401 29.6291Z"/>
<path d="M5.69102 6.51133C5.84576 6.51133 5.99629 6.44922 6.10586 6.33965C6.21484 6.23066 6.27695 6.07949 6.27695 5.92539C6.27695 5.77129 6.21484 5.6207 6.10586 5.51113C5.99629 5.40215 5.84576 5.33945 5.69102 5.33945C5.53691 5.33945 5.38574 5.40215 5.27682 5.51113C5.16783 5.6207 5.10508 5.77129 5.10508 5.92539C5.10508 6.07949 5.16777 6.23066 5.27682 6.33965C5.38574 6.44922 5.53691 6.51133 5.69102 6.51133Z"/>
</mask>
<path d="M28.1849 7.25107C28.4811 6.84473 28.6565 6.34492 28.6565 5.80469C28.6565 4.44771 27.5526 3.34375 26.1956 3.34375C25.6554 3.34375 25.1556 3.51918 24.7492 3.81543C22.1905 1.9723 19.176 1 16 1C12.8844 1 9.89676 1.94641 7.35994 3.73686C7.09557 3.92348 7.03252 4.28904 7.21914 4.55348C7.40576 4.81785 7.77139 4.8809 8.03576 4.69428C9.73029 3.49826 11.6436 2.71129 13.6618 2.36846C13.4269 2.66693 13.1909 3.02617 12.958 3.45883C12.2471 4.77947 11.6605 6.59816 11.2516 8.74152C10.1758 8.81887 9.28955 9.5902 9.03959 10.6094H3.26213C3.60268 9.80553 4.02057 9.03168 4.51381 8.29768C4.69428 8.02908 4.62279 7.66504 4.3542 7.48457C4.08561 7.30404 3.72156 7.37553 3.54109 7.64412C1.87867 10.1182 1 13.0076 1 16C1 19.1749 1.97236 22.1901 3.81525 24.7492C3.51912 25.1554 3.34375 25.6552 3.34375 26.1953C3.34375 27.5523 4.44771 28.6562 5.80469 28.6562C6.34486 28.6562 6.84461 28.4809 7.2509 28.1847C9.8098 30.0277 12.8248 31 16 31C20.0066 31 23.7735 29.4397 26.6066 26.6066C29.4397 23.7735 31 20.0066 31 16C31 12.8243 30.0278 9.80986 28.1849 7.25107ZM29.1692 20.2188H22.9209C22.7202 19.4005 22.1095 18.7421 21.3197 18.4741C21.3659 17.6601 21.3906 16.8307 21.3906 16C21.3906 14.5512 21.3204 13.1336 21.1851 11.7813H29.1764C29.6069 13.1287 29.8281 14.546 29.8281 16C29.8281 17.4707 29.5964 18.8881 29.1692 20.2188ZM16 29.8281C15.0183 29.8281 13.956 28.3997 13.1584 26.007C12.7114 24.6658 12.3656 23.0992 12.1322 21.3907H18.1411C18.3287 22.1556 18.8744 22.7811 19.59 23.0784C18.6987 27.7357 17.1616 29.8281 16 29.8281ZM5.80469 23.7344C5.41287 23.7344 5.04238 23.8269 4.71326 23.9905C4.13061 23.1702 3.64457 22.2999 3.25879 21.3906H10.9507C11.1943 23.2344 11.5638 24.9289 12.0467 26.3775C12.511 27.7705 13.0517 28.8602 13.654 29.6313C11.6243 29.2871 9.7092 28.4942 8.00951 27.2868C8.17311 26.9576 8.26562 26.5871 8.26562 26.1953C8.26562 24.8383 7.16166 23.7344 5.80469 23.7344ZM11.7812 16C11.7812 15.2005 11.8047 14.4027 11.8486 13.6198C12.814 13.4533 13.5883 12.7231 13.8193 11.7812H20.0076C20.1466 13.1284 20.2188 14.5468 20.2188 16C20.2188 16.7969 20.1954 17.5922 20.1517 18.373C19.1678 18.5259 18.3753 19.2638 18.1411 20.2188H11.9923C11.8535 18.8716 11.7812 17.4532 11.7812 16ZM20.531 22.0938C19.8202 22.0938 19.2419 21.5155 19.2419 20.8047C19.2419 20.0939 19.8202 19.5156 20.531 19.5156C21.2418 19.5156 21.8201 20.0939 21.8201 20.8047C21.8201 21.5155 21.2418 22.0938 20.531 22.0938ZM19.9533 5.62246C19.489 4.22939 18.9483 3.13967 18.3459 2.36857C20.3759 2.71281 22.291 3.50559 23.9908 4.7132C23.8272 5.04238 23.7347 5.41287 23.7347 5.80469C23.7347 7.16166 24.8386 8.26562 26.1956 8.26562C26.5874 8.26562 26.9579 8.17311 27.287 8.00957C27.8697 8.82977 28.3556 9.70023 28.7413 10.6094H21.0493C20.8057 8.76561 20.4361 7.07107 19.9533 5.62246ZM27.4847 5.80469C27.4847 6.51549 26.9064 7.09375 26.1956 7.09375C25.4848 7.09375 24.9065 6.51549 24.9065 5.80469C24.9065 5.09389 25.4848 4.51562 26.1956 4.51562C26.9064 4.51562 27.4847 5.09389 27.4847 5.80469ZM16 2.17188C16.9817 2.17188 18.044 3.60033 18.8416 5.99301C19.2886 7.33416 19.6344 8.9009 19.8678 10.6094H13.8194C13.635 9.85756 13.1045 9.24051 12.407 8.93734C13.2976 4.2693 14.8361 2.17188 16 2.17188ZM11.4295 9.90631C12.1403 9.90631 12.7185 10.4846 12.7185 11.1954C12.7185 11.9062 12.1403 12.4844 11.4295 12.4844C10.7187 12.4844 10.1404 11.9062 10.1404 11.1954C10.1404 10.4846 10.7187 9.90631 11.4295 9.90631ZM9.03959 11.7813C9.24356 12.6129 9.87098 13.2797 10.6796 13.5391C10.6339 14.3487 10.6094 15.1736 10.6094 16C10.6094 17.4488 10.6796 18.8665 10.8149 20.2188H2.82385C2.39324 18.8712 2.17188 17.4538 2.17188 16C2.17188 14.5537 2.39482 13.1337 2.82736 11.7813H9.03959ZM4.51562 26.1953C4.51562 25.4845 5.09389 24.9062 5.80469 24.9062C6.51549 24.9062 7.09375 25.4845 7.09375 26.1953C7.09375 26.9061 6.51549 27.4844 5.80469 27.4844C5.09389 27.4844 4.51562 26.9061 4.51562 26.1953ZM18.3401 29.6291C18.5729 29.3329 18.8069 28.9771 19.0378 28.5491C19.7508 27.2274 20.3393 25.4045 20.7491 23.2554C21.8068 23.162 22.6741 22.3971 22.9209 21.3906H28.7339C26.9225 25.6534 23.0306 28.8262 18.3401 29.6291Z" fill="white"/>
<path d="M5.69102 6.51133C5.84576 6.51133 5.99629 6.44922 6.10586 6.33965C6.21484 6.23066 6.27695 6.07949 6.27695 5.92539C6.27695 5.77129 6.21484 5.6207 6.10586 5.51113C5.99629 5.40215 5.84576 5.33945 5.69102 5.33945C5.53691 5.33945 5.38574 5.40215 5.27682 5.51113C5.16783 5.6207 5.10508 5.77129 5.10508 5.92539C5.10508 6.07949 5.16777 6.23066 5.27682 6.33965C5.38574 6.44922 5.53691 6.51133 5.69102 6.51133Z" fill="white"/>
<path d="M28.1849 7.25107C28.4811 6.84473 28.6565 6.34492 28.6565 5.80469C28.6565 4.44771 27.5526 3.34375 26.1956 3.34375C25.6554 3.34375 25.1556 3.51918 24.7492 3.81543C22.1905 1.9723 19.176 1 16 1C12.8844 1 9.89676 1.94641 7.35994 3.73686C7.09557 3.92348 7.03252 4.28904 7.21914 4.55348C7.40576 4.81785 7.77139 4.8809 8.03576 4.69428C9.73029 3.49826 11.6436 2.71129 13.6618 2.36846C13.4269 2.66693 13.1909 3.02617 12.958 3.45883C12.2471 4.77947 11.6605 6.59816 11.2516 8.74152C10.1758 8.81887 9.28955 9.5902 9.03959 10.6094H3.26213C3.60268 9.80553 4.02057 9.03168 4.51381 8.29768C4.69428 8.02908 4.62279 7.66504 4.3542 7.48457C4.08561 7.30404 3.72156 7.37553 3.54109 7.64412C1.87867 10.1182 1 13.0076 1 16C1 19.1749 1.97236 22.1901 3.81525 24.7492C3.51912 25.1554 3.34375 25.6552 3.34375 26.1953C3.34375 27.5523 4.44771 28.6562 5.80469 28.6562C6.34486 28.6562 6.84461 28.4809 7.2509 28.1847C9.8098 30.0277 12.8248 31 16 31C20.0066 31 23.7735 29.4397 26.6066 26.6066C29.4397 23.7735 31 20.0066 31 16C31 12.8243 30.0278 9.80986 28.1849 7.25107ZM29.1692 20.2188H22.9209C22.7202 19.4005 22.1095 18.7421 21.3197 18.4741C21.3659 17.6601 21.3906 16.8307 21.3906 16C21.3906 14.5512 21.3204 13.1336 21.1851 11.7813H29.1764C29.6069 13.1287 29.8281 14.546 29.8281 16C29.8281 17.4707 29.5964 18.8881 29.1692 20.2188ZM16 29.8281C15.0183 29.8281 13.956 28.3997 13.1584 26.007C12.7114 24.6658 12.3656 23.0992 12.1322 21.3907H18.1411C18.3287 22.1556 18.8744 22.7811 19.59 23.0784C18.6987 27.7357 17.1616 29.8281 16 29.8281ZM5.80469 23.7344C5.41287 23.7344 5.04238 23.8269 4.71326 23.9905C4.13061 23.1702 3.64457 22.2999 3.25879 21.3906H10.9507C11.1943 23.2344 11.5638 24.9289 12.0467 26.3775C12.511 27.7705 13.0517 28.8602 13.654 29.6313C11.6243 29.2871 9.7092 28.4942 8.00951 27.2868C8.17311 26.9576 8.26562 26.5871 8.26562 26.1953C8.26562 24.8383 7.16166 23.7344 5.80469 23.7344ZM11.7812 16C11.7812 15.2005 11.8047 14.4027 11.8486 13.6198C12.814 13.4533 13.5883 12.7231 13.8193 11.7812H20.0076C20.1466 13.1284 20.2188 14.5468 20.2188 16C20.2188 16.7969 20.1954 17.5922 20.1517 18.373C19.1678 18.5259 18.3753 19.2638 18.1411 20.2188H11.9923C11.8535 18.8716 11.7812 17.4532 11.7812 16ZM20.531 22.0938C19.8202 22.0938 19.2419 21.5155 19.2419 20.8047C19.2419 20.0939 19.8202 19.5156 20.531 19.5156C21.2418 19.5156 21.8201 20.0939 21.8201 20.8047C21.8201 21.5155 21.2418 22.0938 20.531 22.0938ZM19.9533 5.62246C19.489 4.22939 18.9483 3.13967 18.3459 2.36857C20.3759 2.71281 22.291 3.50559 23.9908 4.7132C23.8272 5.04238 23.7347 5.41287 23.7347 5.80469C23.7347 7.16166 24.8386 8.26562 26.1956 8.26562C26.5874 8.26562 26.9579 8.17311 27.287 8.00957C27.8697 8.82977 28.3556 9.70023 28.7413 10.6094H21.0493C20.8057 8.76561 20.4361 7.07107 19.9533 5.62246ZM27.4847 5.80469C27.4847 6.51549 26.9064 7.09375 26.1956 7.09375C25.4848 7.09375 24.9065 6.51549 24.9065 5.80469C24.9065 5.09389 25.4848 4.51562 26.1956 4.51562C26.9064 4.51562 27.4847 5.09389 27.4847 5.80469ZM16 2.17188C16.9817 2.17188 18.044 3.60033 18.8416 5.99301C19.2886 7.33416 19.6344 8.9009 19.8678 10.6094H13.8194C13.635 9.85756 13.1045 9.24051 12.407 8.93734C13.2976 4.2693 14.8361 2.17188 16 2.17188ZM11.4295 9.90631C12.1403 9.90631 12.7185 10.4846 12.7185 11.1954C12.7185 11.9062 12.1403 12.4844 11.4295 12.4844C10.7187 12.4844 10.1404 11.9062 10.1404 11.1954C10.1404 10.4846 10.7187 9.90631 11.4295 9.90631ZM9.03959 11.7813C9.24356 12.6129 9.87098 13.2797 10.6796 13.5391C10.6339 14.3487 10.6094 15.1736 10.6094 16C10.6094 17.4488 10.6796 18.8665 10.8149 20.2188H2.82385C2.39324 18.8712 2.17188 17.4538 2.17188 16C2.17188 14.5537 2.39482 13.1337 2.82736 11.7813H9.03959ZM4.51562 26.1953C4.51562 25.4845 5.09389 24.9062 5.80469 24.9062C6.51549 24.9062 7.09375 25.4845 7.09375 26.1953C7.09375 26.9061 6.51549 27.4844 5.80469 27.4844C5.09389 27.4844 4.51562 26.9061 4.51562 26.1953ZM18.3401 29.6291C18.5729 29.3329 18.8069 28.9771 19.0378 28.5491C19.7508 27.2274 20.3393 25.4045 20.7491 23.2554C21.8068 23.162 22.6741 22.3971 22.9209 21.3906H28.7339C26.9225 25.6534 23.0306 28.8262 18.3401 29.6291Z" stroke="#0C498A" stroke-width="0.4" mask="url(#path-1-outside-1_213_1393)"/>
<path d="M5.69102 6.51133C5.84576 6.51133 5.99629 6.44922 6.10586 6.33965C6.21484 6.23066 6.27695 6.07949 6.27695 5.92539C6.27695 5.77129 6.21484 5.6207 6.10586 5.51113C5.99629 5.40215 5.84576 5.33945 5.69102 5.33945C5.53691 5.33945 5.38574 5.40215 5.27682 5.51113C5.16783 5.6207 5.10508 5.77129 5.10508 5.92539C5.10508 6.07949 5.16777 6.23066 5.27682 6.33965C5.38574 6.44922 5.53691 6.51133 5.69102 6.51133Z" stroke="#0C498A" stroke-width="0.4" mask="url(#path-1-outside-1_213_1393)"/>
</svg>
