<svg width="16" height="16" viewBox="0 0 16 16" fill="none" xmlns="http://www.w3.org/2000/svg">
<path d="M15.3751 0H0.625033C0.2798 0 0 0.279786 0 0.625001C0 2.36548 0.746134 4.02711 2.04711 5.18348L4.78444 7.61635C5.25907 8.03823 5.5313 8.64443 5.5313 9.27956V15.3743C5.5313 15.8724 6.08797 16.1709 6.50291 15.8942L10.1905 13.4361C10.3643 13.3201 10.4688 13.125 10.4688 12.916V9.27956C10.4688 8.64443 10.7411 8.03823 11.2157 7.61635L13.9529 5.18348C15.2539 4.02711 16 2.36548 16 0.625001C16 0.279786 15.7202 0 15.3751 0ZM13.1224 4.24916L10.3852 6.68214C9.64395 7.34108 9.21875 8.28774 9.21875 9.27944V12.5816L6.78125 14.2065V9.27956C6.78125 8.28774 6.35605 7.34108 5.6148 6.68214L2.87759 4.24928C2.00035 3.46937 1.44038 2.40076 1.29047 1.24988H14.7095C14.5596 2.40076 13.9998 3.46937 13.1224 4.24916Z" fill="white"/>
</svg>
