<svg width="18" height="14" viewBox="0 0 18 14" fill="none" xmlns="http://www.w3.org/2000/svg">
<path d="M18 13.125C18 13.3571 17.9138 13.5796 17.7604 13.7437C17.6069 13.9078 17.3988 14 17.1818 14H7.36364C7.14664 14 6.93853 13.9078 6.7851 13.7437C6.63166 13.5796 6.54545 13.3571 6.54545 13.125C6.54545 11.7326 7.06266 10.3973 7.98329 9.41269C8.90393 8.42812 10.1526 7.875 11.4545 7.875H13.0909C14.3929 7.875 15.6415 8.42812 16.5622 9.41269C17.4828 10.3973 18 11.7326 18 13.125ZM12.2727 0C11.6254 0 10.9927 0.205271 10.4545 0.589856C9.9163 0.974441 9.49683 1.52107 9.24912 2.16061C9.00142 2.80015 8.93661 3.50388 9.06288 4.18282C9.18916 4.86175 9.50086 5.48539 9.95856 5.97487C10.4163 6.46436 10.9994 6.7977 11.6342 6.93275C12.2691 7.0678 12.9271 6.99849 13.5251 6.73358C14.1232 6.46867 14.6343 6.02007 14.9939 5.4445C15.3535 4.86892 15.5455 4.19223 15.5455 3.5C15.5455 2.57174 15.2007 1.6815 14.5869 1.02513C13.9731 0.368749 13.1407 0 12.2727 0ZM4.90909 0C4.26181 0 3.62906 0.205271 3.09086 0.589856C2.55266 0.974441 2.13319 1.52107 1.88549 2.16061C1.63778 2.80015 1.57297 3.50388 1.69925 4.18282C1.82553 4.86175 2.13722 5.48539 2.59492 5.97487C3.05262 6.46436 3.63577 6.7977 4.27061 6.93275C4.90546 7.0678 5.5635 6.99849 6.16151 6.73358C6.75952 6.46867 7.27065 6.02007 7.63026 5.4445C7.98988 4.86892 8.18182 4.19223 8.18182 3.5C8.18182 2.57174 7.83701 1.6815 7.22326 1.02513C6.6095 0.368749 5.77707 0 4.90909 0ZM4.90909 13.125C4.90787 12.2059 5.07719 11.2957 5.40724 10.4471C5.73728 9.59846 6.22149 8.82832 6.83182 8.18125C6.33235 7.97958 5.80298 7.87584 5.26909 7.875H4.54909C3.34326 7.87731 2.18744 8.39062 1.33479 9.30248C0.482135 10.2143 0.00216293 11.4504 0 12.74V13.125C0 13.3571 0.086201 13.5796 0.23964 13.7437C0.393079 13.9078 0.601187 14 0.818182 14H5.05636C4.96111 13.7194 4.9113 13.4235 4.90909 13.125Z" fill="#8B8B8B"/>
</svg>
