<svg width="17" height="17" viewBox="0 0 17 17" fill="none" xmlns="http://www.w3.org/2000/svg">
<path d="M2.49982 14.5002C3.27873 15.2791 4.18605 15.8907 5.19667 16.3182C6.24363 16.761 7.35501 16.9855 8.5 16.9855C9.64496 16.9855 10.7564 16.761 11.8033 16.3182C12.8139 15.8907 13.7213 15.2791 14.5002 14.5002C15.2791 13.7213 15.8908 12.814 16.3182 11.8033C16.761 10.7564 16.9856 9.64496 16.9856 8.50003C16.9856 7.35501 16.761 6.24362 16.3182 5.19668C15.8908 4.18607 15.2791 3.27874 14.5002 2.49982C13.7213 1.72091 12.8139 1.10925 11.8033 0.681812C10.7563 0.238963 9.64496 0.014458 8.5 0.014458C7.35501 0.014458 6.24363 0.238991 5.19667 0.681812C4.18605 1.10925 3.27873 1.72094 2.49982 2.49982C1.72091 3.27871 1.10925 4.18607 0.681781 5.19665C0.238991 6.24362 0.014458 7.35501 0.014458 8.50003C0.014458 9.64499 0.238991 10.7564 0.68181 11.8033C1.10925 12.814 1.72094 13.7213 2.49982 14.5002ZM8.5 1.25322C12.5023 1.25322 15.7468 4.49772 15.7468 8.50003C15.7468 12.5023 12.5023 15.7468 8.5 15.7468C4.49771 15.7468 1.25322 12.5023 1.25322 8.50003C1.25322 4.49772 4.49771 1.25322 8.5 1.25322Z" fill="#318E51"/>
<path d="M8.5 17C7.35299 17 6.23972 16.7751 5.19103 16.3315C4.17868 15.9033 3.26979 15.2906 2.48961 14.5104C1.70937 13.7302 1.09667 12.8212 0.668509 11.809C0.224909 10.7602 0 9.6469 0 8.50003C0 7.35313 0.224909 6.2398 0.66848 5.19102C1.09664 4.17872 1.70937 3.26983 2.48958 2.48959C3.26979 1.70935 4.17871 1.09664 5.191 0.668482C6.23978 0.224909 7.35308 0 8.49997 0C9.64695 0 10.7602 0.224909 11.8089 0.668511C12.8212 1.09667 13.7301 1.7094 14.5104 2.48962C15.2907 3.26992 15.9034 4.17881 16.3315 5.19104C16.7751 6.23983 17 7.35313 17 8.50003C17 9.6469 16.7751 10.7602 16.3315 11.809C15.9034 12.8212 15.2907 13.7301 14.5104 14.5105C13.7302 15.2906 12.8213 15.9033 11.8089 16.3316C10.7602 16.7751 9.64695 17 8.5 17ZM8.5 0.0289161C7.35698 0.0289161 6.2475 0.253045 5.2023 0.695114C4.19345 1.12183 3.28763 1.73245 2.51005 2.51003C1.73244 3.28764 1.12182 4.19344 0.695112 5.20226C0.253044 6.24749 0.028916 7.357 0.028916 8.50003C0.028916 9.64299 0.253044 10.7525 0.695112 11.7977C1.12182 12.8066 1.73244 13.7124 2.51005 14.49C3.2876 15.2675 4.1934 15.8781 5.2023 16.3049C6.24739 16.747 7.35689 16.9711 8.5 16.9711C9.64311 16.9711 10.7526 16.747 11.7977 16.3049C12.8066 15.8781 13.7124 15.2675 14.4899 14.49C15.2676 13.7123 15.8782 12.8065 16.3048 11.7977C16.7469 10.7525 16.9711 9.64302 16.9711 8.50003C16.9711 7.357 16.7469 6.24749 16.3048 5.20232C15.8782 4.19353 15.2676 3.28773 14.4899 2.51006C13.7123 1.73248 12.8065 1.12186 11.7977 0.695143C10.7526 0.253045 9.64305 0.0289161 8.5 0.0289161ZM8.5 15.7612C6.56046 15.7612 4.73699 15.0059 3.36553 13.6345C1.99408 12.263 1.23876 10.4396 1.23876 8.50003C1.23876 6.56048 1.99405 4.737 3.36553 3.36554C4.73699 1.99408 6.56046 1.23877 8.5 1.23877C10.4395 1.23877 12.263 1.99408 13.6344 3.36554C15.0059 4.73703 15.7612 6.56048 15.7612 8.50003C15.7612 10.4396 15.0059 12.263 13.6344 13.6345C12.263 15.0059 10.4395 15.7612 8.5 15.7612ZM8.5 1.26768C6.56818 1.26768 4.752 2.01999 3.38598 3.38599C2.01998 4.75201 1.26768 6.5682 1.26768 8.50003C1.26768 10.4319 2.01998 12.248 3.38598 13.614C4.75197 14.98 6.56818 15.7323 8.5 15.7323C10.4318 15.7323 12.248 14.98 13.614 13.614C14.98 12.248 15.7323 10.4318 15.7323 8.50003C15.7323 6.5682 14.98 4.75198 13.614 3.38599C12.248 2.01996 10.4318 1.26768 8.5 1.26768Z" fill="#318E51"/>
<path d="M6.62153 11.5894C6.73769 11.7056 6.89522 11.7708 7.05949 11.7708C7.22379 11.7708 7.3813 11.7055 7.49745 11.5894L12.8002 6.28659C13.0421 6.04471 13.0421 5.65255 12.8002 5.41066C12.5584 5.16878 12.1662 5.16875 11.9243 5.41066L7.05949 10.2755L5.07568 8.29166C4.8338 8.04975 4.44164 8.04975 4.19976 8.29166C3.95788 8.53354 3.95788 8.9257 4.19976 9.16758L6.62153 11.5894Z" fill="#318E51"/>
<path d="M7.05949 11.7852C6.89019 11.7852 6.73101 11.7193 6.61129 11.5996L4.18952 9.17779C3.94241 8.93065 3.94241 8.52854 4.18952 8.28139C4.30923 8.16165 4.46842 8.09572 4.63772 8.09572C4.80702 8.09572 4.96618 8.16165 5.08592 8.28139L7.05952 10.255L11.9141 5.4004C12.0338 5.28066 12.193 5.21476 12.3623 5.21476C12.5316 5.21476 12.6907 5.28068 12.8105 5.4004C12.9302 5.52011 12.9961 5.67929 12.9961 5.8486C12.9961 6.0179 12.9302 6.17705 12.8105 6.2968L7.50769 11.5996C7.38801 11.7193 7.22882 11.7852 7.05949 11.7852ZM4.63772 8.12467C4.47614 8.12467 4.32424 8.18759 4.20999 8.30187C3.97416 8.53773 3.97416 8.92148 4.20999 9.15735L6.63177 11.5791C6.74601 11.6934 6.89791 11.7563 7.05949 11.7563C7.2211 11.7563 7.373 11.6934 7.48725 11.5791L12.79 6.27635C12.9043 6.1621 12.9672 6.01018 12.9672 5.84863C12.9672 5.68707 12.9043 5.53512 12.79 5.42087C12.6758 5.30659 12.5238 5.2437 12.3623 5.2437C12.2007 5.2437 12.0487 5.30662 11.9345 5.42087L7.05949 10.2959L5.06545 8.30187C4.9512 8.18759 4.7993 8.12467 4.63772 8.12467Z" fill="#318E51"/>
</svg>
