<svg width="17" height="17" viewBox="0 0 17 17" fill="none" xmlns="http://www.w3.org/2000/svg">
<path d="M16.7238 0.0986367C16.639 0.0434553 16.5417 0.0103309 16.4409 0.00227272C16.3401 -0.00578545 16.2388 0.0114781 16.1464 0.0524948L11.3068 2.20356L5.90689 0.043388C5.83155 0.0132636 5.75092 -0.00145138 5.66979 0.00011282C5.58866 0.00167702 5.50867 0.0194886 5.43454 0.0524948L0.360643 2.30738C0.253289 2.35507 0.162076 2.43288 0.0980624 2.53138C0.0340492 2.62987 -1.49046e-05 2.74482 4.89221e-09 2.86229V16.3928C-1.28345e-05 16.4939 0.0252486 16.5935 0.0734894 16.6824C0.12173 16.7713 0.191421 16.8468 0.276232 16.9019C0.361042 16.957 0.458283 16.9901 0.559122 16.9981C0.65996 17.0061 0.7612 16.9888 0.853643 16.9477L5.69318 14.7966L11.0931 16.9568C11.1685 16.9866 11.2491 17.0012 11.3302 16.9996C11.4113 16.9981 11.4913 16.9804 11.5655 16.9477L16.6394 14.6928C16.7467 14.6451 16.8379 14.5673 16.9019 14.4688C16.966 14.3703 17 14.2554 17 14.1379V0.607412C17 0.506313 16.9747 0.406825 16.9264 0.317978C16.8782 0.22913 16.8085 0.153736 16.7238 0.0986367ZM6.28818 1.50414L10.7118 3.27393V15.4961L6.28818 13.7263V1.50414ZM1.21429 3.25693L5.07389 1.54178V13.7451L1.21429 15.4584V3.25693ZM15.7857 13.7433L11.9261 15.4584V3.25693L15.7857 1.54178V13.7433Z" fill="#0C498A"/>
</svg>
