<svg width="50" height="20" viewBox="0 0 50 20" fill="none" xmlns="http://www.w3.org/2000/svg">
<path d="M9.44984 2.57909C10.0385 1.88478 10.4379 0.952609 10.3326 0C9.47093 0.0404249 8.41937 0.536112 7.81058 1.23089C7.2639 1.82593 6.78011 2.79714 6.90628 3.70979C7.87347 3.78889 8.83997 3.25388 9.44984 2.57909Z" fill="#6E6E6E"/>
<path d="M10.3216 3.88797C8.91683 3.80905 7.7224 4.63974 7.0515 4.63974C6.38031 4.63974 5.35296 3.92775 4.24183 3.9469C2.79564 3.96698 1.45375 4.738 0.719862 5.96428C-0.789609 8.41749 0.321523 12.0565 1.78939 14.0544C2.50219 15.0428 3.36136 16.1313 4.4933 16.0921C5.56283 16.0525 5.98207 15.4391 7.28206 15.4391C8.58119 15.4391 8.95882 16.0921 10.091 16.0723C11.2651 16.0525 11.9991 15.0834 12.7118 14.0939C13.5296 12.9671 13.8644 11.8791 13.8854 11.8193C13.8643 11.7996 11.6214 10.9882 11.6006 8.55543C11.5794 6.51844 13.3616 5.54944 13.4454 5.4894C12.4392 4.08604 10.8667 3.92775 10.3216 3.88797Z" fill="#6E6E6E"/>
<path d="M22.5535 1.13116C25.6069 1.13116 27.7329 3.11575 27.7329 6.00517C27.7329 8.90489 25.563 10.8998 22.477 10.8998H19.0964V15.9691H16.6539V1.13116H22.5535ZM19.0963 8.96659H21.8989C24.0254 8.96659 25.2357 7.88699 25.2357 6.01548C25.2357 4.14415 24.0254 3.07468 21.9098 3.07468H19.0963V8.96659Z" fill="#6E6E6E"/>
<path d="M28.3711 12.8947C28.3711 11.0026 29.9087 9.84065 32.6352 9.69672L35.7756 9.52195V8.68914C35.7756 7.48606 34.9141 6.76624 33.4749 6.76624C32.1114 6.76624 31.2609 7.38311 31.0539 8.34981H28.8293C28.9602 6.39597 30.7266 4.95642 33.562 4.95642C36.3427 4.95642 38.1201 6.34459 38.1201 8.51418V15.9691H35.8627V14.1902H35.8084C35.1433 15.3934 33.6928 16.1542 32.188 16.1542C29.9415 16.1542 28.3711 14.838 28.3711 12.8947ZM35.7755 11.9179V11.0644L32.9511 11.2289C31.5444 11.3215 30.7484 11.9077 30.7484 12.8331C30.7484 13.779 31.5771 14.396 32.8421 14.396C34.4887 14.3959 35.7755 13.3265 35.7755 11.9179Z" fill="#6E6E6E"/>
<path d="M40.2512 19.9486V18.1491C40.4254 18.1902 40.8179 18.1902 41.0143 18.1902C42.1047 18.1902 42.6937 17.7584 43.0533 16.6479C43.0533 16.6272 43.2607 15.9897 43.2607 15.9794L39.117 5.15173H41.6685L44.5695 13.9538H44.6129L47.514 5.15173H50L45.7031 16.5346C44.7221 19.1569 43.5879 20 41.2107 20C41.0143 20 40.4253 19.9794 40.2512 19.9486Z" fill="#6E6E6E"/>
</svg>
