<svg width="44" height="37" viewBox="0 0 44 37" fill="none" xmlns="http://www.w3.org/2000/svg">
<path d="M5.023 35.198L5.027 35.204V35.202L5.023 35.198Z" fill="#6E6E6E"/>
<path d="M5.205 32.722C4.973 32.722 4.748 32.703 4.52 32.7V32.806H4.61C4.764 32.806 5.072 32.876 5.072 33.306L5.064 35.218L5.037 35.245L2.787 32.701C2.637 32.701 2.49 32.722 2.336 32.722C2.152 32.722 1.962 32.703 1.778 32.701L1.777 32.808H1.821C2.059 32.808 2.302 32.989 2.302 33.286V35.418C2.302 35.82 2.19 36.081 1.826 36.083L1.778 36.081V36.189C1.996 36.189 2.222 36.168 2.444 36.168C2.655 36.168 2.865 36.187 3.074 36.189V36.083H3.011C2.612 36.08 2.513 35.907 2.513 35.467V33.325L5.139 36.263H5.306C5.284 36.109 5.28 35.943 5.28 35.775V33.472C5.28 32.867 5.534 32.808 5.753 32.808H5.805V32.701C5.606 32.702 5.406 32.722 5.205 32.722Z" fill="#6E6E6E"/>
<path d="M5.827 32.661C5.618 32.657 5.411 32.675 5.205 32.675C4.969 32.675 4.735 32.655 4.497 32.655H4.475V32.85H4.609C4.755 32.854 5.025 32.903 5.027 33.305V35.165L2.804 32.665C2.633 32.657 2.487 32.675 2.336 32.675C2.147 32.675 1.949 32.656 1.755 32.656H1.733V32.85H1.821C2.038 32.852 2.259 33.014 2.259 33.285V35.416C2.256 35.817 2.16 36.033 1.826 36.035H1.733V36.23H1.755C1.984 36.23 2.217 36.21 2.443 36.21C2.659 36.21 2.877 36.23 3.095 36.23H3.118V36.037H3.009C2.628 36.032 2.562 35.907 2.555 35.468V33.442L5.122 36.302L5.331 36.311H5.356L5.352 36.284C5.329 36.132 5.323 35.956 5.323 35.778V33.477C5.328 32.878 5.542 32.862 5.752 32.856H5.848V32.661H5.827ZM5.83 32.832H5.753C5.54 32.832 5.302 32.873 5.302 33.477V35.778C5.302 35.956 5.306 36.132 5.332 36.289H5.139L2.534 33.385V35.47C2.534 35.911 2.62 36.062 3.01 36.062H3.095V36.214C2.878 36.214 2.661 36.194 2.444 36.194C2.217 36.194 1.984 36.214 1.756 36.214V36.062H1.826C2.175 36.062 2.283 35.825 2.283 35.421V33.289C2.283 33.006 2.049 32.834 1.822 32.834H1.757V32.683C1.949 32.683 2.145 32.704 2.339 32.704C2.49 32.704 2.637 32.683 2.79 32.683L5.041 35.217L5.05 35.207V33.311C5.05 32.895 4.762 32.833 4.611 32.833H4.499V32.682C4.737 32.682 4.969 32.703 5.207 32.703C5.415 32.703 5.622 32.682 5.83 32.682V32.832Z" fill="#6E6E6E"/>
<path d="M12.397 35.394C12.246 35.963 11.952 36.014 11.354 36.01C11.035 36.01 10.716 36.01 10.716 35.658V34.458H11.344C11.696 34.454 11.733 34.667 11.758 34.956L11.867 34.932C11.857 34.746 11.852 34.559 11.852 34.373C11.852 34.184 11.857 33.994 11.867 33.803H11.758C11.73 34.064 11.648 34.251 11.339 34.248H10.716V32.878H11.44C11.966 32.875 12.055 33.145 12.077 33.463L12.186 33.436C12.176 33.294 12.171 33.108 12.171 32.94C12.171 32.854 12.172 32.772 12.176 32.701C11.833 32.702 11.32 32.722 10.905 32.722C10.488 32.722 9.978 32.703 9.667 32.701V32.807H9.716C9.896 32.807 10.112 32.839 10.112 33.119V35.769C10.112 36.048 9.896 36.079 9.716 36.081H9.667V36.185C9.962 36.185 10.546 36.165 10.99 36.165C11.437 36.165 12.008 36.185 12.334 36.185C12.377 35.931 12.435 35.675 12.497 35.418L12.397 35.394Z" fill="#6E6E6E"/>
<path d="M9.366 32.505L9.343 32.497L9.34 32.519C9.332 32.652 9.229 32.654 9.088 32.657H6.455C6.326 32.654 6.232 32.652 6.197 32.525L6.195 32.509H6.034V32.53C6.034 32.676 6.025 32.817 6.003 32.957C5.988 33.103 5.963 33.246 5.941 33.386L5.94 33.414H6.134L6.137 33.396C6.22 33.021 6.213 32.958 6.586 32.953H7.394V35.633C7.388 36.026 7.275 36.029 6.998 36.035H6.88V36.23H6.901C7.099 36.23 7.454 36.209 7.756 36.209C8.027 36.209 8.381 36.23 8.581 36.23H8.602V36.035H8.483C8.242 36.029 8.09 36.004 8.086 35.622V32.953H8.893C9.213 32.953 9.233 33.228 9.247 33.418L9.248 33.447L9.427 33.382L9.441 33.376V33.361C9.441 33.224 9.441 33.089 9.45 32.955C9.465 32.818 9.485 32.684 9.506 32.547L9.509 32.526L9.366 32.505ZM9.428 32.953C9.419 33.091 9.419 33.226 9.419 33.361L9.266 33.419C9.255 33.232 9.231 32.934 8.892 32.934H8.063V35.624C8.063 36.016 8.24 36.061 8.481 36.061H8.579V36.212C8.382 36.212 8.027 36.191 7.755 36.191C7.451 36.191 7.097 36.212 6.9 36.212V36.061H6.995C7.274 36.061 7.415 36.037 7.415 35.636V32.934H6.585C6.206 32.934 6.191 33.026 6.115 33.395H5.963C5.984 33.251 6.009 33.112 6.024 32.962C6.044 32.82 6.054 32.68 6.054 32.532H6.177C6.218 32.683 6.344 32.678 6.48 32.678H9.09C9.227 32.678 9.353 32.673 9.364 32.522L9.484 32.543C9.463 32.681 9.444 32.814 9.428 32.953Z" fill="#6E6E6E"/>
<path d="M9.38 32.548C9.358 32.695 9.216 32.703 9.089 32.701H6.456C6.337 32.701 6.206 32.697 6.161 32.556H6.078C6.076 32.694 6.067 32.831 6.047 32.965C6.033 33.102 6.01 33.235 5.99 33.37H6.099C6.165 33.018 6.21 32.903 6.586 32.909H7.438V35.634C7.438 36.041 7.274 36.082 6.997 36.083H6.921V36.187C7.121 36.187 7.463 36.168 7.755 36.168C8.019 36.168 8.356 36.187 8.557 36.187V36.083H8.483C8.239 36.082 8.04 36.02 8.04 35.624V32.91H8.892C9.233 32.911 9.276 33.201 9.288 33.389L9.396 33.348C9.396 33.218 9.397 33.085 9.406 32.952C9.421 32.821 9.44 32.692 9.459 32.561L9.38 32.548Z" fill="#6E6E6E"/>
<path d="M1.564 32.656C1.325 32.657 1.022 32.675 0.771 32.675C0.524 32.675 0.221 32.655 0.021 32.655H0V32.85H0.092C0.275 32.852 0.443 32.871 0.444 33.119V35.768C0.443 36.016 0.275 36.032 0.092 36.035H0V36.229H0.021C0.221 36.229 0.519 36.208 0.765 36.208C1.018 36.208 1.32 36.229 1.564 36.229H1.587V36.035H1.494C1.31 36.032 1.141 36.017 1.141 35.769V33.119C1.141 32.871 1.31 32.853 1.494 32.851H1.587V32.656H1.564ZM1.563 32.832H1.493C1.311 32.832 1.118 32.855 1.118 33.121V35.769C1.118 36.035 1.311 36.058 1.493 36.058H1.563V36.21C1.32 36.21 1.017 36.19 0.764 36.19C0.516 36.19 0.218 36.21 0.02 36.21V36.058H0.091C0.273 36.058 0.465 36.036 0.465 35.769V33.121C0.465 32.855 0.273 32.832 0.091 32.832H0.02V32.682C0.218 32.682 0.521 32.702 0.77 32.702C1.022 32.702 1.325 32.682 1.563 32.682V32.832Z" fill="#6E6E6E"/>
<path d="M24.331 1.50814e-06H19.227C13.226 -0.00299849 8.285 4.472 8.285 10.943C8.285 16.863 13.225 21.728 19.227 21.698H24.331C30.262 21.726 35.675 16.861 35.675 10.943C35.675 4.47 30.261 -0.00299849 24.331 1.50814e-06ZM19.251 20.764C13.767 20.761 9.322 16.315 9.321 10.83C9.322 5.343 13.767 0.897002 19.251 0.896002C24.736 0.897002 29.182 5.344 29.182 10.83C29.182 16.315 24.737 20.761 19.251 20.764Z" fill="#6E6E6E"/>
<path d="M34.141 30.412C33.88 30.412 33.675 30.412 33.675 30.102V23.68C33.675 23.604 33.659 23.547 33.6 23.547C33.571 23.547 33.497 23.596 33.395 23.651C33.2 23.764 32.811 23.932 32.438 24.05V24.198C32.792 24.301 32.932 24.319 32.932 24.924V30.102C32.932 30.411 32.746 30.411 32.484 30.411H32.306V30.651C32.652 30.643 32.986 30.632 33.32 30.632C33.656 30.632 33.983 30.651 34.296 30.651V30.412H34.141Z" fill="#6E6E6E"/>
<path d="M21.503 4.953V16.706C23.865 15.797 25.542 13.513 25.546 10.829C25.543 8.147 23.865 5.859 21.503 4.953Z" fill="#6E6E6E"/>
<path d="M41.509 26.403C40.999 26.403 40.497 26.757 40.126 27.072V23.678C40.126 23.602 40.105 23.546 40.05 23.546C40.022 23.546 39.947 23.592 39.846 23.649C39.651 23.762 39.261 23.93 38.887 24.049V24.198C39.242 24.304 39.382 24.32 39.382 24.925V28.923C39.382 29.49 39.335 30.028 39.251 30.579L39.445 30.681L39.724 30.466C39.964 30.57 40.328 30.793 41.015 30.793C42.347 30.793 43.238 29.574 43.238 28.356C43.238 27.342 42.589 26.403 41.509 26.403ZM41.083 30.552C40.46 30.552 40.126 29.956 40.126 29.604V27.344C40.376 27.128 40.665 26.906 41.009 26.906C41.735 26.906 42.495 27.744 42.495 28.747C42.495 29.574 42.079 30.552 41.083 30.552Z" fill="#6E6E6E"/>
<path d="M38.536 30.321C38.38 30.321 38.276 30.313 38.276 30.145V26.712C38.276 26.607 38.276 26.545 38.202 26.545C38.11 26.545 37.589 26.618 36.753 26.674V26.842C37.087 26.936 37.534 27.037 37.534 27.225V29.727C37.143 30.048 36.723 30.29 36.409 30.29C35.6 30.29 35.6 29.489 35.599 29.211V26.816C35.599 26.61 35.599 26.547 35.495 26.547C35.374 26.547 34.63 26.602 34.296 26.61V26.788C34.817 26.832 34.854 27.065 34.854 27.309V29.688C34.854 30.466 35.374 30.793 35.876 30.793C36.538 30.793 36.964 30.466 37.522 30.014V30.768L37.569 30.795C37.747 30.739 38.509 30.543 38.911 30.506V30.313C38.788 30.313 38.649 30.321 38.536 30.321Z" fill="#6E6E6E"/>
<path d="M21.42 27.314C21.42 26.917 21.773 26.702 22.144 26.702C22.742 26.702 23.066 27.037 23.16 27.622H23.375L23.311 26.675C22.947 26.488 22.547 26.404 22.25 26.404C21.229 26.404 20.81 27.073 20.81 27.594C20.81 29.089 22.834 28.733 22.834 29.833C22.834 30.16 22.628 30.495 22.079 30.498C21.399 30.498 21.029 29.975 20.907 29.362L20.74 29.41L20.843 30.479C21.168 30.663 21.604 30.794 21.977 30.794C23.083 30.794 23.577 30.142 23.577 29.527C23.577 28.068 21.42 28.404 21.42 27.314Z" fill="#6E6E6E"/>
<path d="M2.736 24.162C2.048 24.162 1.518 24.183 1.127 24.183C0.764 24.183 0.394 24.183 0.031 24.162V24.403C0.449 24.413 0.886 24.356 0.886 25.192L0.885 29.704C0.859 30.336 0.588 30.352 0.031 30.411V30.649C0.449 30.641 0.859 30.631 1.277 30.631C1.713 30.635 2.151 30.649 2.625 30.649C5.916 30.649 6.454 28.337 6.454 27.416C6.454 25.769 5.144 24.162 2.736 24.162ZM2.764 30.353C2.309 30.353 1.797 30.269 1.797 29.554L1.796 24.498C1.964 24.485 2.14 24.461 2.522 24.461C4.316 24.461 5.432 25.716 5.432 27.454C5.432 28.84 4.772 30.353 2.764 30.353Z" fill="#6E6E6E"/>
<path d="M1.493 32.808H1.542V32.701C1.309 32.701 1.016 32.722 0.771 32.722C0.53 32.722 0.239 32.703 0.043 32.701V32.808H0.092C0.272 32.808 0.488 32.84 0.488 33.12V35.768C0.488 36.05 0.272 36.08 0.092 36.08H0.043V36.187C0.239 36.187 0.525 36.166 0.764 36.166C1.011 36.166 1.303 36.185 1.542 36.187V36.08H1.493C1.312 36.08 1.096 36.049 1.096 35.768V33.12C1.096 32.839 1.312 32.808 1.493 32.808Z" fill="#6E6E6E"/>
<path d="M8.612 30.415C8.352 30.415 8.147 30.415 8.147 30.106V26.538C8.147 26.464 8.128 26.407 8.082 26.407C8.035 26.407 7.979 26.416 7.913 26.453C7.877 26.481 7.357 26.655 6.92 26.788V26.936C7.263 27.119 7.404 27.176 7.404 27.585V30.105C7.404 30.414 7.216 30.414 6.957 30.414H6.78V30.654C7.124 30.644 7.459 30.635 7.793 30.635C8.128 30.635 8.453 30.649 8.77 30.655V30.415H8.612Z" fill="#6E6E6E"/>
<path d="M19.973 26.405C19.407 26.405 19.016 27.001 18.784 27.362H18.764V26.524C18.764 26.432 18.736 26.405 18.681 26.405C18.597 26.405 18.225 26.645 17.546 26.934V27.074C17.686 27.147 18.029 27.205 18.029 27.493V30.102C18.029 30.413 17.843 30.413 17.584 30.413H17.333V30.653C17.668 30.645 18.057 30.634 18.439 30.634C18.839 30.634 19.228 30.645 19.739 30.653V30.414H19.219C18.959 30.414 18.773 30.414 18.773 30.104V27.919C18.773 27.359 19.293 27.146 19.453 27.149C19.778 27.149 19.778 27.373 20.067 27.373C20.327 27.373 20.504 27.147 20.504 26.897C20.504 26.561 20.205 26.405 19.973 26.405Z" fill="#6E6E6E"/>
<path d="M7.774 24.061C7.542 24.061 7.32 24.276 7.32 24.508C7.32 24.75 7.533 24.974 7.774 24.975C8.026 24.975 8.231 24.758 8.231 24.508C8.231 24.256 8.016 24.061 7.774 24.061Z" fill="#6E6E6E"/>
<path d="M17.032 29.61C16.69 29.952 16.289 30.231 15.777 30.231C15.035 30.231 14.466 29.507 14.412 28.624C14.391 28.31 14.391 28.169 14.412 28.085L17.024 28.087L17.108 28.029C17.116 27.974 17.116 27.919 17.116 27.861C17.108 26.877 16.298 26.402 15.545 26.402C14.895 26.402 13.667 26.941 13.667 28.763C13.667 29.357 13.965 30.79 15.443 30.79C16.206 30.79 16.734 30.306 17.162 29.739L17.032 29.61ZM15.508 26.702C16.029 26.702 16.318 27.083 16.318 27.556C16.318 27.666 16.291 27.788 16.058 27.788H14.44C14.552 27.118 14.942 26.702 15.508 26.702Z" fill="#6E6E6E"/>
<path d="M12.958 10.829C12.962 13.51 14.635 15.795 16.997 16.703V4.953C14.636 5.862 12.963 8.148 12.958 10.829Z" fill="#6E6E6E"/>
<path d="M36.322 32.722C36.091 32.722 35.867 32.703 35.642 32.702V32.807H35.732C35.886 32.809 36.193 32.878 36.193 33.307L36.189 35.219L36.177 35.229L36.159 35.247L33.909 32.702C33.759 32.702 33.61 32.723 33.458 32.723C33.272 32.723 33.083 32.704 32.897 32.702V32.807H32.942C33.177 32.808 33.423 32.989 33.423 33.286V35.418C33.423 35.82 33.308 36.081 32.945 36.083L32.894 36.082V36.187C33.113 36.187 33.337 36.167 33.562 36.167C33.773 36.167 33.982 36.187 34.191 36.187V36.083H34.128C33.731 36.081 33.63 35.907 33.63 35.467V33.325L36.256 36.263H36.422C36.402 36.109 36.398 35.943 36.398 35.775V33.472C36.398 32.864 36.652 32.808 36.869 32.806H36.924V32.701C36.724 32.702 36.523 32.722 36.322 32.722Z" fill="#6E6E6E"/>
<path d="M12.388 35.344H12.366V35.347L12.361 35.367C12.209 35.935 11.964 35.965 11.356 35.969C11.026 35.967 10.76 35.969 10.76 35.661V34.502H11.345C11.681 34.506 11.683 34.675 11.718 34.982L11.72 35.006L11.895 34.972L11.914 34.966L11.913 34.948C11.904 34.755 11.897 34.563 11.897 34.371C11.897 34.174 11.904 33.975 11.913 33.78L11.914 33.759H11.72L11.718 33.779C11.684 34.05 11.632 34.202 11.34 34.205H10.76V32.924H11.441C11.963 32.93 12.006 33.166 12.036 33.495L12.038 33.519L12.216 33.474L12.232 33.468V33.448C12.221 33.303 12.216 33.114 12.216 32.938C12.216 32.841 12.218 32.751 12.221 32.675L12.222 32.654H12.199C11.855 32.654 11.331 32.673 10.905 32.673C10.482 32.673 9.955 32.654 9.647 32.654H9.625V32.848H9.718C9.902 32.852 10.068 32.869 10.069 33.118V35.766C10.068 36.014 9.902 36.031 9.718 36.034H9.625V36.227H9.647C9.935 36.227 10.537 36.207 10.991 36.207C11.446 36.207 12.028 36.227 12.352 36.227H12.37L12.374 36.209C12.42 35.941 12.48 35.674 12.545 35.406L12.55 35.385L12.388 35.344ZM12.352 36.211C12.027 36.211 11.446 36.19 10.992 36.19C10.535 36.19 9.934 36.211 9.646 36.211V36.061H9.717C9.9 36.061 10.091 36.037 10.091 35.772V33.122C10.091 32.856 9.9 32.833 9.717 32.833H9.646V32.681C9.954 32.681 10.481 32.702 10.906 32.702C11.331 32.702 11.855 32.681 12.199 32.681C12.191 32.9 12.195 33.234 12.212 33.455L12.058 33.495C12.033 33.167 11.973 32.903 11.441 32.903H10.739V34.229H11.342C11.643 34.229 11.71 34.057 11.739 33.782H11.891C11.881 33.981 11.876 34.178 11.876 34.376C11.876 34.567 11.881 34.76 11.891 34.953L11.739 34.983C11.709 34.679 11.695 34.483 11.345 34.483H10.739V35.659C10.739 35.989 11.031 35.989 11.356 35.989C11.963 35.989 12.23 35.948 12.382 35.373L12.524 35.407C12.458 35.675 12.397 35.941 12.352 36.211Z" fill="#6E6E6E"/>
<path d="M36.947 32.66C36.736 32.66 36.529 32.68 36.322 32.68C36.088 32.68 35.855 32.66 35.615 32.66H35.592V32.854H35.727C35.875 32.858 36.145 32.908 36.147 33.309V35.169L33.922 32.667C33.75 32.659 33.606 32.678 33.453 32.678C33.264 32.678 33.066 32.659 32.873 32.659H32.85V32.853H32.938C33.155 32.853 33.376 33.017 33.376 33.286V35.418C33.372 35.82 33.275 36.035 32.941 36.037H32.85V36.232H32.872C33.101 36.232 33.333 36.211 33.56 36.211C33.775 36.211 33.993 36.232 34.21 36.232H34.231V36.037H34.124C33.743 36.031 33.677 35.908 33.671 35.468V33.442L36.235 36.303L36.444 36.309H36.469L36.464 36.287C36.44 36.132 36.436 35.955 36.436 35.778V33.475C36.44 32.879 36.657 32.86 36.864 32.854H36.968V32.66H36.947ZM36.953 32.833H36.876C36.658 32.832 36.419 32.872 36.419 33.474V35.777C36.419 35.954 36.423 36.13 36.45 36.287H36.257L33.653 33.383V35.468C33.653 35.909 33.739 36.061 34.13 36.061H34.216V36.212C33.999 36.212 33.78 36.191 33.566 36.191C33.337 36.191 33.105 36.212 32.878 36.212V36.061H32.947C33.298 36.061 33.402 35.824 33.402 35.419V33.287C33.402 33.004 33.173 32.832 32.943 32.832H32.878V32.68C33.068 32.68 33.268 32.701 33.458 32.701C33.611 32.701 33.757 32.68 33.908 32.68L36.16 35.215L36.167 35.208L36.171 35.205V33.309C36.171 32.893 35.884 32.833 35.731 32.833H35.624V32.682C35.86 32.682 36.093 32.703 36.331 32.703C36.538 32.703 36.745 32.682 36.953 32.682V32.833Z" fill="#6E6E6E"/>
<path d="M30.798 32.826C29.913 32.826 29.652 33.617 29.652 34.293C29.652 35.198 30.066 36.064 30.885 36.064C31.867 36.064 32.037 35.198 32.037 34.46C32.039 33.722 31.641 32.826 30.798 32.826ZM30.886 36.042C30.085 36.041 29.675 35.193 29.673 34.292C29.677 33.618 29.932 32.85 30.798 32.848C31.622 32.85 32.018 33.727 32.018 34.459C32.016 35.198 31.85 36.042 30.886 36.042Z" fill="#6E6E6E"/>
<path d="M30.811 32.625C29.77 32.625 28.964 33.432 28.964 34.473C28.966 35.547 29.776 36.266 30.837 36.266C31.902 36.266 32.725 35.5 32.729 34.35C32.727 33.286 31.878 32.627 30.811 32.625ZM30.886 36.086C30.046 36.085 29.632 35.204 29.63 34.293C29.632 33.611 29.899 32.807 30.798 32.807C31.659 32.807 32.059 33.718 32.061 34.461C32.061 35.198 31.887 36.086 30.886 36.086Z" fill="#6E6E6E"/>
<path d="M38.496 33.246H38.488L38.486 33.248L38.017 34.68H38.963L38.496 33.246ZM38.491 33.3L38.929 34.654H38.046L38.491 33.3Z" fill="#6E6E6E"/>
<path d="M30.811 32.582C29.749 32.583 28.923 33.407 28.921 34.473C28.923 35.573 29.753 36.307 30.835 36.311C31.921 36.307 32.77 35.526 32.77 34.35C32.768 33.258 31.896 32.583 30.811 32.582ZM30.835 36.287C29.762 36.287 28.943 35.558 28.943 34.472C28.943 33.418 29.755 32.605 30.808 32.605C31.886 32.605 32.746 33.273 32.746 34.349C32.748 35.515 31.914 36.287 30.835 36.287Z" fill="#6E6E6E"/>
<path d="M43.341 35.331L43.326 35.329L43.32 35.348C43.293 35.456 43.248 35.598 43.17 35.704C43.082 35.825 42.904 35.943 42.697 35.967C42.568 35.983 42.439 35.988 42.314 35.988C42.215 35.988 42.125 35.984 42.035 35.978C41.877 35.955 41.754 35.906 41.752 35.715V33.107C41.756 32.851 41.879 32.861 42.074 32.855H42.222V32.66H42.201C41.941 32.66 41.687 32.68 41.431 32.68C41.162 32.68 40.898 32.66 40.629 32.66H40.608V32.854H40.7C40.886 32.856 41.057 32.875 41.059 33.121V35.724C41.057 36.023 40.882 36.036 40.7 36.038H40.609V36.233H40.63C41.075 36.233 41.523 36.212 41.966 36.212C42.411 36.212 42.857 36.233 43.3 36.233H43.318L43.322 36.215C43.384 35.927 43.454 35.647 43.511 35.356L43.515 35.331H43.341ZM43.3 36.211C42.858 36.211 42.411 36.19 41.968 36.19C41.522 36.19 41.077 36.211 40.632 36.211V36.061H40.7C40.884 36.061 41.083 36.037 41.083 35.72V33.12C41.083 32.853 40.884 32.831 40.7 32.831H40.632V32.68C40.901 32.68 41.163 32.7 41.432 32.7C41.69 32.7 41.942 32.68 42.202 32.68V32.831H42.073C41.884 32.831 41.731 32.836 41.731 33.103V35.712C41.731 35.915 41.872 35.976 42.034 35.996C42.241 36.011 42.47 36.011 42.702 35.985C42.915 35.96 43.097 35.839 43.186 35.713C43.266 35.603 43.311 35.459 43.341 35.349H43.487C43.434 35.64 43.363 35.922 43.3 36.211Z" fill="#6E6E6E"/>
<path d="M40.425 36.083C40.253 36.083 40.132 36.015 40.07 35.866C40.006 35.712 39.943 35.523 39.883 35.345L38.951 32.699C38.934 32.66 38.922 32.612 38.908 32.579C38.903 32.571 38.905 32.571 38.899 32.571H38.891C38.879 32.571 38.873 32.576 38.862 32.579C38.764 32.641 38.561 32.743 38.412 32.782C38.381 32.973 38.289 33.225 38.224 33.413L37.412 35.735C37.336 35.955 37.16 36.081 36.953 36.081H36.944V36.186C37.119 36.175 37.293 36.165 37.469 36.165C37.664 36.165 37.865 36.176 38.059 36.186V36.081H38.024C37.86 36.078 37.629 36.06 37.625 35.88C37.625 35.78 37.688 35.651 37.735 35.48L37.901 34.937H39.082L39.287 35.541C39.342 35.704 39.39 35.838 39.39 35.912C39.381 36.066 39.168 36.079 39.054 36.083H39.02V36.187H39.022C39.272 36.177 39.518 36.166 39.757 36.166C39.991 36.166 40.212 36.177 40.434 36.187V36.083H40.425ZM37.986 34.7L38.47 33.224H38.516L38.995 34.7H37.986Z" fill="#6E6E6E"/>
<path d="M43.43 32.537C43.124 32.537 42.897 32.769 42.897 33.07C42.897 33.369 43.126 33.599 43.43 33.599C43.733 33.599 43.96 33.369 43.96 33.07C43.96 32.771 43.73 32.537 43.43 32.537ZM43.43 33.502C43.19 33.502 43.005 33.298 43.005 33.068C43.005 32.839 43.19 32.634 43.43 32.634C43.669 32.634 43.85 32.838 43.85 33.068C43.85 33.298 43.666 33.502 43.43 33.502Z" fill="#6E6E6E"/>
<path d="M43.583 33.206L43.492 33.086C43.564 33.065 43.617 33.005 43.617 32.925C43.617 32.828 43.533 32.784 43.437 32.784H43.166V32.81C43.234 32.806 43.242 32.827 43.242 32.88V33.275C43.242 33.316 43.228 33.314 43.164 33.325V33.349H43.422V33.325C43.356 33.314 43.342 33.316 43.342 33.283V33.103H43.403C43.502 33.246 43.547 33.349 43.594 33.349H43.698V33.332C43.669 33.313 43.622 33.263 43.583 33.206ZM43.406 33.07H43.342V32.818H43.403C43.461 32.818 43.508 32.849 43.508 32.935C43.507 33.021 43.475 33.07 43.406 33.07Z" fill="#6E6E6E"/>
<path d="M40.424 36.032C40.264 36.034 40.169 35.978 40.111 35.847C40.047 35.697 39.986 35.511 39.923 35.331L38.993 32.685C38.975 32.642 38.962 32.597 38.946 32.556C38.93 32.531 38.905 32.527 38.891 32.527C38.87 32.527 38.854 32.535 38.844 32.54C38.743 32.602 38.54 32.703 38.382 32.759C38.337 32.959 38.245 33.21 38.184 33.399L37.372 35.721C37.298 35.925 37.141 36.033 36.952 36.033H36.902V36.228H36.923C37.108 36.218 37.288 36.207 37.469 36.207C37.669 36.207 37.878 36.218 38.079 36.228H38.1V36.035H38.024C37.856 36.035 37.67 36.005 37.67 35.88C37.668 35.799 37.728 35.666 37.778 35.492L37.934 34.98H39.051L39.242 35.552C39.299 35.713 39.346 35.851 39.344 35.907C39.344 36.005 39.168 36.032 39.051 36.032H38.977V36.229L39 36.228C39.256 36.219 39.51 36.207 39.758 36.207C40 36.207 40.227 36.219 40.453 36.228L40.476 36.23V36.033H40.424V36.032ZM40.457 36.211C40.228 36.201 40 36.19 39.758 36.19C39.51 36.19 39.258 36.201 39 36.211V36.061H39.055C39.17 36.061 39.369 36.04 39.369 35.914C39.369 35.849 39.322 35.714 39.265 35.551L39.068 34.964H37.922L37.758 35.491C37.709 35.661 37.649 35.795 37.649 35.885C37.649 36.038 37.862 36.062 38.028 36.062H38.086V36.214C37.883 36.204 37.676 36.194 37.474 36.194C37.291 36.194 37.111 36.203 36.928 36.214V36.062H36.957C37.155 36.062 37.321 35.945 37.397 35.732L38.207 33.413C38.272 33.225 38.364 32.975 38.394 32.784C38.556 32.728 38.758 32.629 38.855 32.566C38.873 32.562 38.879 32.556 38.896 32.556C38.912 32.556 38.92 32.556 38.931 32.572C38.947 32.613 38.963 32.659 38.978 32.697L39.908 35.343C39.969 35.521 40.029 35.706 40.097 35.861C40.158 36.004 40.262 36.062 40.428 36.062H40.459L40.457 36.211Z" fill="#6E6E6E"/>
<path d="M43.359 35.373C43.328 35.482 43.283 35.619 43.203 35.73C43.109 35.857 42.921 35.982 42.705 36.011C42.569 36.025 42.438 36.032 42.315 36.032C42.217 36.032 42.123 36.025 42.03 36.019C41.867 36.001 41.707 35.931 41.707 35.714V33.105C41.707 32.825 41.885 32.808 42.073 32.808H42.178V32.702C41.928 32.703 41.682 32.723 41.432 32.723C41.172 32.723 40.914 32.704 40.653 32.702V32.808H40.703C40.881 32.808 41.104 32.842 41.104 33.12V35.723C41.104 36.048 40.885 36.082 40.703 36.082H40.653V36.189C41.092 36.189 41.528 36.168 41.967 36.168C42.408 36.168 42.845 36.189 43.283 36.189C43.342 35.915 43.41 35.646 43.463 35.373H43.359Z" fill="#6E6E6E"/>
<path d="M28.722 36.035C28.537 36.032 28.371 36.017 28.368 35.769V33.119C28.37 32.872 28.536 32.853 28.722 32.851H28.812V32.655H28.791C28.555 32.658 28.25 32.676 27.998 32.676C27.752 32.676 27.447 32.656 27.25 32.656H27.229V32.851H27.323C27.506 32.853 27.674 32.872 27.676 33.12V35.769C27.674 36.017 27.506 36.034 27.323 36.036H27.229V36.23H27.25C27.447 36.23 27.748 36.209 27.996 36.209C28.248 36.209 28.549 36.23 28.793 36.23H28.814V36.035H28.722ZM28.792 36.209C28.55 36.209 28.247 36.189 27.995 36.189C27.747 36.189 27.447 36.209 27.249 36.209V36.057H27.32C27.503 36.057 27.693 36.035 27.693 35.768V33.12C27.693 32.854 27.503 32.831 27.32 32.831H27.25V32.681C27.447 32.681 27.75 32.701 27.998 32.701C28.254 32.701 28.559 32.681 28.793 32.681L28.792 32.831H28.723C28.54 32.831 28.348 32.854 28.348 33.12V35.768C28.348 36.034 28.54 36.057 28.723 36.057H28.792V36.209Z" fill="#6E6E6E"/>
<path d="M20.433 32.659C20.225 32.659 20.018 32.68 19.811 32.68C19.575 32.68 19.342 32.659 19.103 32.659H19.081V32.854H19.214C19.361 32.856 19.631 32.908 19.632 33.309V35.169L17.408 32.665C17.24 32.658 17.092 32.678 16.944 32.678C16.753 32.678 16.556 32.658 16.363 32.658H16.34V32.853H16.427C16.645 32.853 16.865 33.017 16.865 33.286V35.416C16.862 35.82 16.766 36.036 16.433 36.037H16.34V36.232H16.363C16.59 36.232 16.824 36.211 17.05 36.211C17.267 36.211 17.483 36.232 17.702 36.232H17.724V36.037H17.618C17.236 36.031 17.168 35.908 17.163 35.468V33.442L19.73 36.303L19.938 36.311H19.963L19.96 36.288C19.933 36.132 19.929 35.956 19.929 35.778V33.477C19.934 32.879 20.149 32.862 20.358 32.856H20.455V32.659H20.433ZM20.435 32.831H20.359C20.146 32.832 19.908 32.872 19.908 33.474V35.777C19.908 35.954 19.912 36.13 19.937 36.287H19.744L17.14 33.382V35.467C17.14 35.908 17.226 36.061 17.617 36.061H17.701V36.211C17.485 36.211 17.267 36.19 17.05 36.19C16.821 36.19 16.589 36.211 16.362 36.211V36.061H16.432C16.782 36.061 16.887 35.823 16.887 35.418V33.286C16.887 33.003 16.655 32.831 16.427 32.831H16.363V32.68C16.553 32.68 16.753 32.7 16.944 32.7C17.094 32.7 17.243 32.68 17.394 32.68L19.645 35.214L19.65 35.207L19.653 35.204V33.308C19.653 32.892 19.366 32.831 19.214 32.831H19.104V32.681C19.342 32.681 19.574 32.701 19.812 32.701C20.02 32.701 20.226 32.681 20.435 32.681V32.831Z" fill="#6E6E6E"/>
<path d="M19.811 32.722C19.579 32.722 19.355 32.703 19.125 32.701V32.806H19.214C19.371 32.808 19.677 32.876 19.677 33.306L19.67 35.218L19.661 35.228L19.645 35.246L17.394 32.701C17.243 32.701 17.097 32.722 16.944 32.722C16.757 32.722 16.568 32.703 16.383 32.701V32.806H16.427C16.666 32.807 16.909 32.988 16.909 33.285V35.415C16.909 35.819 16.794 36.08 16.432 36.082L16.382 36.081V36.186C16.601 36.186 16.826 36.165 17.049 36.165C17.262 36.165 17.471 36.186 17.68 36.186V36.081H17.618C17.218 36.079 17.12 35.905 17.118 35.465V33.325L19.745 36.263H19.912C19.889 36.109 19.886 35.943 19.886 35.775V33.472C19.886 32.867 20.14 32.808 20.358 32.806H20.411V32.701C20.211 32.702 20.012 32.722 19.811 32.722Z" fill="#6E6E6E"/>
<path d="M15.702 35.769L14.821 34.451L14.846 34.441C15.241 34.287 15.535 34.015 15.535 33.57C15.535 32.869 14.989 32.705 14.353 32.702C14.086 32.702 13.843 32.723 13.539 32.723C13.242 32.723 12.941 32.704 12.776 32.702V32.81H12.845C13.003 32.81 13.226 32.835 13.226 33.215V35.785C13.226 35.988 13.037 36.082 12.845 36.082H12.776V36.186C13.019 36.186 13.25 36.165 13.487 36.165C13.771 36.165 14.056 36.186 14.335 36.186V36.082H14.267C14.037 36.082 13.829 36.054 13.829 35.651V34.547H14.198L14.203 34.559C14.534 35.141 14.866 35.688 15.239 36.188C15.393 36.188 15.554 36.167 15.712 36.167C15.874 36.167 16.029 36.184 16.187 36.188V36.079C15.951 36.048 15.84 35.978 15.702 35.769ZM14.101 34.411H13.83V32.861L13.851 32.859C13.919 32.853 13.988 32.839 14.141 32.839C14.602 32.839 14.902 33.14 14.902 33.599C14.9 34.206 14.61 34.411 14.101 34.411Z" fill="#6E6E6E"/>
<path d="M16.212 36.032C15.967 36.005 15.879 35.954 15.738 35.743L14.888 34.472C15.278 34.312 15.58 34.027 15.58 33.57C15.579 32.836 14.992 32.661 14.353 32.659C14.083 32.659 13.841 32.68 13.539 32.68C13.231 32.68 12.918 32.659 12.755 32.659H12.733V32.855H12.845C13.003 32.859 13.178 32.857 13.182 33.215V35.785C13.181 35.956 13.029 36.035 12.845 36.035H12.733V36.23H12.755C13.008 36.23 13.245 36.209 13.487 36.209C13.774 36.209 14.069 36.23 14.357 36.23H14.38V36.035H14.267C14.033 36.028 13.88 36.033 13.874 35.651V34.59H14.173C14.5 35.168 14.832 35.711 15.22 36.221C15.396 36.229 15.558 36.208 15.712 36.208C15.878 36.208 16.04 36.229 16.209 36.229H16.23V36.035L16.212 36.032ZM16.21 36.211C16.044 36.211 15.881 36.19 15.715 36.19C15.558 36.19 15.395 36.211 15.238 36.211C14.849 35.698 14.514 35.152 14.186 34.568H13.853V35.652C13.853 36.044 14.034 36.058 14.268 36.058H14.359V36.209C14.069 36.209 13.777 36.188 13.489 36.188C13.246 36.188 13.008 36.209 12.756 36.209V36.058H12.846C13.035 36.058 13.206 35.972 13.206 35.786V33.216C13.206 32.85 13.003 32.832 12.846 32.832H12.756V32.682C12.918 32.682 13.231 32.702 13.54 32.702C13.843 32.702 14.086 32.682 14.354 32.682C14.991 32.682 15.559 32.854 15.559 33.573C15.559 34.026 15.256 34.305 14.855 34.463L15.719 35.757C15.861 35.972 15.962 36.032 16.21 36.062V36.211Z" fill="#6E6E6E"/>
<path d="M28.722 32.808H28.769V32.701C28.537 32.702 28.244 32.722 27.998 32.722C27.756 32.722 27.467 32.703 27.273 32.701V32.808H27.32C27.501 32.808 27.716 32.84 27.716 33.12V35.768C27.716 36.048 27.502 36.08 27.32 36.08H27.273V36.185C27.467 36.183 27.752 36.165 27.994 36.165C28.238 36.165 28.531 36.185 28.769 36.185V36.08H28.722C28.539 36.079 28.326 36.047 28.326 35.768V33.12C28.326 32.839 28.537 32.808 28.722 32.808Z" fill="#6E6E6E"/>
<path d="M13.707 30.412H13.539C13.278 30.412 13.075 30.412 13.075 30.102V27.704C13.075 26.979 12.796 26.403 12.006 26.403C11.383 26.403 10.927 26.719 10.396 27.1V26.496C10.396 26.421 10.368 26.402 10.342 26.402C9.894 26.597 9.514 26.718 9.114 26.849V27.025C9.55 27.2 9.654 27.293 9.654 27.638H9.653V30.101C9.653 30.411 9.468 30.411 9.208 30.411H9.041V30.65C9.375 30.64 9.71 30.631 10.044 30.631C10.379 30.631 10.705 30.65 11.03 30.65V30.411H10.863C10.603 30.411 10.396 30.411 10.396 30.101V27.349C10.705 27.146 11.179 26.902 11.475 26.902C12.006 26.902 12.33 27.165 12.33 27.695V30.101C12.33 30.412 12.145 30.412 11.885 30.412H11.718V30.65C12.05 30.642 12.386 30.632 12.721 30.632C13.056 30.632 13.38 30.65 13.707 30.65C13.707 30.649 13.707 30.412 13.707 30.412Z" fill="#6E6E6E"/>
<path d="M14.141 32.86C13.99 32.86 13.924 32.877 13.853 32.881V34.389H14.101C14.607 34.389 14.879 34.198 14.879 33.6C14.878 33.148 14.591 32.86 14.141 32.86ZM14.101 34.367H13.875V32.9C13.94 32.894 14.004 32.88 14.141 32.88C14.581 32.884 14.856 33.157 14.859 33.599C14.855 34.187 14.601 34.36 14.101 34.367Z" fill="#6E6E6E"/>
<path d="M26.948 32.505L26.921 32.497L26.919 32.519C26.911 32.652 26.811 32.654 26.669 32.657H24.036C23.905 32.654 23.813 32.652 23.778 32.525L23.772 32.509H23.613V32.53C23.613 32.676 23.601 32.817 23.583 32.957C23.566 33.103 23.542 33.245 23.521 33.388L23.519 33.413H23.714L23.718 33.395C23.802 33.02 23.792 32.957 24.167 32.952H24.975L24.977 35.632C24.968 36.025 24.858 36.028 24.579 36.034H24.46V36.229H24.483C24.68 36.229 25.036 36.208 25.337 36.208C25.608 36.208 25.962 36.229 26.161 36.229H26.18V36.035H26.061C25.821 36.029 25.667 36.004 25.665 35.622V32.953H26.474C26.792 32.953 26.814 33.228 26.827 33.418L26.829 33.447L27.007 33.382L27.022 33.376V33.361C27.022 33.226 27.022 33.089 27.032 32.955C27.048 32.818 27.067 32.684 27.087 32.547L27.093 32.526L26.948 32.505ZM27.007 32.953C26.997 33.091 26.997 33.226 26.997 33.361L26.846 33.419C26.835 33.232 26.811 32.934 26.473 32.934H25.641V35.624C25.641 36.016 25.819 36.061 26.061 36.061H26.155V36.212C25.962 36.212 25.606 36.191 25.333 36.191C25.03 36.191 24.675 36.212 24.479 36.212V36.061H24.575C24.854 36.061 24.996 36.037 24.996 35.636V32.934H24.166C23.787 32.934 23.77 33.026 23.694 33.395H23.543C23.564 33.251 23.59 33.112 23.605 32.962C23.626 32.82 23.635 32.68 23.635 32.532H23.758C23.797 32.683 23.924 32.678 24.06 32.678H26.67C26.808 32.678 26.933 32.673 26.942 32.522L27.063 32.543C27.042 32.681 27.025 32.814 27.007 32.953Z" fill="#6E6E6E"/>
<path d="M26.96 32.548C26.938 32.695 26.794 32.704 26.664 32.704H24.03C23.912 32.705 23.782 32.699 23.735 32.558H23.653C23.651 32.696 23.644 32.833 23.623 32.967C23.61 33.104 23.584 33.24 23.565 33.372H23.672C23.738 33.02 23.783 32.905 24.16 32.911H25.009V35.637C25.009 36.042 24.847 36.082 24.568 36.083H24.495V36.188C24.695 36.186 25.036 36.167 25.329 36.167C25.594 36.167 25.932 36.186 26.13 36.188V36.082H26.057C25.815 36.081 25.618 36.02 25.618 35.624V32.91H26.47C26.81 32.911 26.855 33.201 26.863 33.389L26.974 33.348C26.974 33.217 26.974 33.084 26.984 32.952C26.999 32.821 27.017 32.692 27.038 32.561L26.96 32.548Z" fill="#6E6E6E"/>
<path d="M31.769 28.889C31.583 29.863 30.82 30.496 29.902 30.496C28.471 30.496 27.131 29.148 27.131 27.269C27.131 25.038 28.682 24.322 29.752 24.322C30.793 24.322 31.562 24.757 31.74 25.847H31.97L31.878 24.517C31.162 24.267 30.435 24.023 29.683 24.023C27.861 24.023 26.161 25.39 26.161 27.295C26.161 29.388 27.538 30.792 29.712 30.792C30.328 30.793 31.378 30.542 31.769 30.3L31.982 28.944L31.769 28.889Z" fill="#6E6E6E"/>
<path d="M23.909 36.031C23.751 36.036 23.658 35.98 23.6 35.849C23.536 35.699 23.475 35.513 23.413 35.333L22.48 32.687C22.463 32.644 22.45 32.599 22.435 32.558C22.418 32.533 22.392 32.529 22.379 32.529C22.358 32.529 22.345 32.537 22.33 32.542C22.231 32.604 22.028 32.706 21.871 32.759C21.828 32.961 21.736 33.212 21.67 33.401L20.859 35.723C20.785 35.93 20.629 36.035 20.441 36.035H20.39V36.23H20.414C20.595 36.22 20.776 36.209 20.959 36.209C21.161 36.209 21.368 36.22 21.569 36.23H21.591V36.035H21.514C21.346 36.035 21.158 36.005 21.156 35.881C21.156 35.799 21.217 35.665 21.268 35.492L21.424 34.98H22.539L22.732 35.552C22.789 35.712 22.836 35.851 22.832 35.907C22.832 36.005 22.66 36.032 22.541 36.032H22.463V36.229L22.485 36.227C22.745 36.218 22.995 36.206 23.243 36.206C23.483 36.206 23.714 36.218 23.938 36.227L23.96 36.229V36.031H23.909ZM23.942 36.211C23.714 36.201 23.488 36.19 23.246 36.19C22.998 36.19 22.744 36.201 22.486 36.211V36.061H22.543C22.66 36.061 22.855 36.04 22.855 35.914C22.855 35.849 22.81 35.714 22.754 35.551L22.556 34.964H21.409L21.248 35.491C21.197 35.661 21.136 35.795 21.136 35.885C21.136 36.038 21.349 36.062 21.515 36.062H21.572V36.214C21.368 36.204 21.162 36.194 20.958 36.194C20.776 36.194 20.595 36.203 20.413 36.214V36.062H20.443C20.64 36.062 20.809 35.945 20.882 35.732L21.692 33.413C21.758 33.225 21.85 32.975 21.88 32.784C22.041 32.728 22.243 32.629 22.338 32.566C22.354 32.562 22.361 32.556 22.379 32.556C22.395 32.556 22.404 32.556 22.415 32.572C22.43 32.613 22.445 32.659 22.461 32.697L23.393 35.343C23.454 35.521 23.512 35.706 23.581 35.861C23.642 36.004 23.747 36.062 23.915 36.062H23.942V36.211Z" fill="#6E6E6E"/>
<path d="M23.914 36.083C23.74 36.083 23.621 36.015 23.559 35.866C23.493 35.712 23.432 35.523 23.371 35.345L22.44 32.699C22.423 32.66 22.41 32.612 22.395 32.577C22.393 32.571 22.393 32.571 22.387 32.571H22.38C22.369 32.571 22.361 32.576 22.352 32.579C22.254 32.641 22.05 32.742 21.901 32.782C21.869 32.973 21.778 33.225 21.712 33.413L20.903 35.735C20.826 35.955 20.649 36.081 20.443 36.081H20.435V36.186C20.608 36.175 20.783 36.165 20.96 36.165C21.156 36.165 21.355 36.176 21.548 36.186V36.081H21.515C21.351 36.078 21.12 36.06 21.114 35.881C21.115 35.78 21.177 35.65 21.227 35.48L21.393 34.937H22.57L22.775 35.541C22.832 35.704 22.879 35.838 22.879 35.912C22.873 36.066 22.658 36.079 22.543 36.083H22.51V36.187C22.76 36.177 23.006 36.166 23.246 36.166C23.48 36.166 23.701 36.177 23.922 36.187V36.083H23.914ZM21.474 34.7L21.958 33.224H22L22.482 34.7H21.474Z" fill="#6E6E6E"/>
<path d="M21.986 33.246H21.975V33.249L21.506 34.68H22.451L21.986 33.246ZM21.98 33.3L22.419 34.654H21.535L21.98 33.3Z" fill="#6E6E6E"/>
</svg>
