<svg width="72" height="12" viewBox="0 0 72 12" fill="none" xmlns="http://www.w3.org/2000/svg">
<path fill-rule="evenodd" clip-rule="evenodd" d="M1.28339e-05 0.585253C-0.000690291 0.399972 0.0268722 0.33261 0.23781 0.335691C1.31978 0.350956 2.40287 0.320846 3.48414 0.354317C5.07489 0.403613 6.52037 0.865206 7.69937 1.98418C8.51092 2.75415 9.02097 3.69694 9.22178 4.7907C9.62172 6.96982 9.00479 8.81885 7.33797 10.2972C6.42798 11.1041 5.33757 11.5098 4.13298 11.6066C2.80534 11.7133 1.4739 11.6285 0.144575 11.6573C-0.0144715 11.6608 0.00324721 11.5752 0.00338783 11.4758C0.00451283 10.3603 0.00690346 2.38905 1.28339e-05 0.585253ZM2.21331 9.52945C2.21247 9.68266 2.24467 9.73168 2.40751 9.72957C2.85076 9.72383 3.29486 9.72831 3.73543 9.67916C4.53995 9.58939 5.29454 9.35957 5.88348 8.77264C6.87348 7.78629 7.23728 6.58666 6.96236 5.22947C6.68546 3.86248 5.89543 2.89924 4.52547 2.47644C3.8582 2.27057 3.16436 2.28345 2.47375 2.27477C2.27701 2.27225 2.20881 2.31104 2.21106 2.52616C2.22329 3.68574 2.21992 8.35474 2.21331 9.52945Z" fill="#6E6E6E"/>
<path fill-rule="evenodd" clip-rule="evenodd" d="M67.1524 6.91142C68.3424 8.49633 69.5135 10.0562 70.713 11.6538C70.5263 11.6538 70.3803 11.6538 70.2343 11.6538C69.5652 11.6538 68.8959 11.6434 68.227 11.66C68.0244 11.665 67.9223 11.5898 67.8173 11.4331C66.8897 10.0485 65.9541 8.66914 65.0209 7.28815C65.0084 7.26952 64.9931 7.25188 64.9846 7.23143C64.9283 7.09348 64.807 7.10259 64.6996 7.12471C64.5811 7.14908 64.6377 7.25986 64.6374 7.32946C64.6338 8.68469 64.6287 10.0399 64.6407 11.395C64.6426 11.6203 64.5756 11.6642 64.3652 11.659C63.7792 11.644 63.1924 11.6495 62.6061 11.6567C62.4583 11.6587 62.3983 11.632 62.3984 11.4647C62.4033 7.81836 62.4026 4.17198 62.4002 0.525734C62.4002 0.402073 62.4135 0.335272 62.5669 0.338633C63.8291 0.364821 65.0929 0.288496 66.3538 0.384848C67.2293 0.45179 68.0528 0.687629 68.726 1.28199C69.5334 1.9951 69.7608 2.93075 69.7058 3.96121C69.6251 5.47693 68.7957 6.47784 67.3179 6.85079C67.2683 6.86325 67.2209 6.88607 67.1524 6.91142ZM64.6349 3.84553C64.6349 4.3462 64.6439 4.84714 64.63 5.34739C64.6251 5.52286 64.681 5.55732 64.8428 5.55073C65.1722 5.53729 65.5017 5.54443 65.8314 5.50984C66.796 5.40845 67.3448 4.85316 67.4163 3.89077C67.474 3.11589 67.0763 2.5298 66.3362 2.28808C65.8495 2.12912 65.3473 2.14649 64.8457 2.13669C64.6819 2.13347 64.6261 2.16904 64.6306 2.34354C64.6433 2.84392 64.6349 3.34487 64.6349 3.84553Z" fill="#6E6E6E"/>
<path fill-rule="evenodd" clip-rule="evenodd" d="M54.6736 0.561446C54.673 0.39171 54.7076 0.336252 54.8914 0.336952C56.8458 0.344375 58.8002 0.343255 60.7546 0.338213C60.9068 0.337793 60.9618 0.367482 60.9583 0.531616C60.9472 1.05539 60.9473 1.57972 60.9583 2.1035C60.9616 2.26147 60.9027 2.28261 60.7658 2.28205C59.5555 2.27743 58.3452 2.28499 57.1351 2.27393C56.9294 2.27211 56.8883 2.33177 56.8918 2.52405C56.9039 3.2051 56.9025 3.88656 56.8922 4.56761C56.8897 4.73776 56.9377 4.77894 57.1054 4.77796C58.2705 4.77054 59.4357 4.7788 60.6008 4.76913C60.7849 4.76759 60.8202 4.82403 60.8165 4.99237C60.8057 5.49373 60.8058 5.99552 60.8167 6.49689C60.82 6.65542 60.7746 6.69309 60.6184 6.69225C59.4608 6.68539 58.3031 6.69477 57.1456 6.68287C56.9298 6.68063 56.8899 6.74855 56.8921 6.9456C56.9025 7.7989 56.9011 8.65234 56.8927 9.50578C56.891 9.67551 56.9264 9.73139 57.1104 9.72999C58.3204 9.72075 59.5308 9.72957 60.741 9.72061C60.9217 9.71935 60.9622 9.77061 60.9584 9.94188C60.947 10.4582 60.9507 10.975 60.9569 11.4915C60.9584 11.6152 60.9279 11.6572 60.7961 11.6569C58.8116 11.6528 56.8271 11.6513 54.8426 11.6587C54.6619 11.6594 54.6763 11.5715 54.6764 11.454C54.6777 9.62706 54.6796 2.36552 54.6736 0.561446Z" fill="#6E6E6E"/>
<path fill-rule="evenodd" clip-rule="evenodd" d="M14.8268 8.38527C15.1258 8.94223 15.5202 9.39584 16.1009 9.64989C16.725 9.92298 17.3675 10.0182 18.0153 9.72971C18.604 9.46782 18.9219 9.00035 18.9473 8.36384C18.9724 7.73335 18.6337 7.31097 18.0852 7.0383C17.4548 6.72488 16.7731 6.53876 16.1289 6.26007C15.4993 5.98768 14.8995 5.67257 14.4648 5.11477C14.1992 4.77404 14.0518 4.38443 14.0004 3.96723C13.7709 2.10938 14.7925 0.780618 16.3422 0.343954C17.9608 -0.112177 19.4185 0.288636 20.7242 1.31069C20.8207 1.38618 20.8537 1.43939 20.7613 1.55465C20.4289 1.96933 20.1039 2.39017 19.7897 2.81857C19.6943 2.94895 19.6526 2.91198 19.5656 2.81955C19.2104 2.44198 18.8027 2.13626 18.2744 2.06106C17.6075 1.96611 16.9767 2.05112 16.5125 2.60164C16.0975 3.09376 16.1896 3.71361 16.7139 4.08445C17.1831 4.41636 17.73 4.58357 18.2592 4.78734C18.7553 4.97836 19.2399 5.19179 19.7037 5.45368C20.6499 5.98796 21.17 6.77165 21.2378 7.8699C21.3521 9.72425 20.3732 11.2902 18.55 11.7567C16.6047 12.2545 14.704 11.7031 13.4561 9.86864C13.4047 9.79287 13.399 9.74862 13.4699 9.68168C13.9217 9.25467 14.3694 8.82333 14.8268 8.38527Z" fill="#6E6E6E"/>
<path fill-rule="evenodd" clip-rule="evenodd" d="M42.7732 0.341573C43.5443 0.341573 44.2807 0.346475 45.0169 0.337372C45.1643 0.335551 45.2218 0.388208 45.2727 0.516631C45.9504 2.22519 47.9032 7.11785 48.2032 7.87298C48.3401 7.72243 50.2913 2.79406 51.2111 0.508929C51.2478 0.417759 51.2741 0.337373 51.4079 0.338493C52.1591 0.345076 52.9103 0.341714 53.6934 0.341714C53.5147 0.769135 50.2971 8.37239 48.8649 11.7675C48.8083 11.902 48.7454 11.9459 48.6046 11.9406C48.3195 11.9298 48.0334 11.9305 47.7482 11.9405C47.6213 11.945 47.5639 11.8988 47.5168 11.785C46.6342 9.65311 43.5378 2.20335 42.8761 0.608643C42.8421 0.527136 42.8124 0.443947 42.7732 0.341573Z" fill="#6E6E6E"/>
<path fill-rule="evenodd" clip-rule="evenodd" d="M30.6909 3.40046C30.2719 3.00133 29.8703 2.66606 29.3906 2.44507C27.5033 1.57594 25.2312 2.50949 24.5038 4.50291C23.9435 6.03837 24.13 7.49836 25.2557 8.74519C26.0085 9.57888 27.003 9.88307 28.1121 9.87144C28.992 9.86234 29.72 9.50592 30.3635 8.93971C30.4583 8.85638 30.5498 8.76956 30.6419 8.68511C30.7219 8.72866 30.6889 8.79617 30.689 8.84868C30.6916 9.58981 30.6893 10.3311 30.6923 11.0723C30.6927 11.1848 30.6759 11.2534 30.5533 11.3122C28.2742 12.4052 25.3911 11.9726 23.608 10.1548C22.5045 9.0299 21.9611 7.67188 21.9268 6.09986C21.8687 3.43996 23.6484 1.12037 26.1241 0.375465C27.6431 -0.0816463 29.1263 0.00588192 30.557 0.720958C30.6339 0.759331 30.6938 0.792522 30.6932 0.898537C30.6889 1.71417 30.6909 2.52966 30.6909 3.40046Z" fill="#6E6E6E"/>
<path fill-rule="evenodd" clip-rule="evenodd" d="M12.5743 11.407C12.575 11.5929 12.5473 11.6661 12.3338 11.66C11.7329 11.6423 11.131 11.6493 10.5297 11.657C10.3838 11.659 10.3389 11.6216 10.339 11.4715C10.3431 7.82536 10.3434 4.17912 10.3386 0.533016C10.3383 0.368742 10.3929 0.336391 10.5441 0.338352C11.1379 0.346334 11.7321 0.350397 12.3257 0.336672C12.5222 0.332051 12.5765 0.379104 12.5755 0.580911C12.5667 2.39269 12.5678 9.61025 12.5743 11.407Z" fill="#6E6E6E"/>
<path fill-rule="evenodd" clip-rule="evenodd" d="M71.1312 0.263706C70.6514 0.263706 70.2624 0.654717 70.2624 1.13704C70.2624 1.61936 70.6514 2.01036 71.1312 2.01036C71.611 2.01036 72 1.61936 72 1.13704C72 0.654717 71.611 0.263706 71.1312 0.263706ZM71.1312 1.84819C70.7529 1.84819 70.4464 1.52986 70.4464 1.13717C70.4464 0.744485 70.7529 0.426161 71.1312 0.426161C71.5095 0.426161 71.8162 0.744485 71.8162 1.13717C71.8161 1.52986 71.5095 1.84819 71.1312 1.84819Z" fill="#6E6E6E"/>
<path fill-rule="evenodd" clip-rule="evenodd" d="M71.2072 1.22624C71.3146 1.36923 71.4203 1.51012 71.5286 1.65437C71.5118 1.65437 71.4985 1.65437 71.4855 1.65437C71.425 1.65437 71.3647 1.65339 71.3042 1.65493C71.286 1.65549 71.2768 1.64863 71.2672 1.63448C71.1835 1.50942 71.099 1.38492 71.0148 1.26028C71.0137 1.2586 71.0123 1.25705 71.0116 1.25523C71.0065 1.24263 70.9955 1.24347 70.9858 1.24543C70.9751 1.24767 70.9802 1.25762 70.9802 1.26392C70.9799 1.38618 70.9793 1.50858 70.9805 1.63098C70.9808 1.65128 70.9746 1.65535 70.9556 1.65479C70.9027 1.65353 70.8497 1.65395 70.7968 1.65465C70.7835 1.65479 70.7781 1.65241 70.7781 1.63728C70.7785 1.30817 70.7785 0.978923 70.7784 0.649814C70.7784 0.638611 70.7795 0.632729 70.7934 0.632869C70.9073 0.635249 71.0214 0.628388 71.1353 0.636931C71.2143 0.642953 71.2886 0.664239 71.3495 0.718017C71.4223 0.782298 71.4428 0.866887 71.4379 0.959877C71.4306 1.0967 71.3558 1.18703 71.2224 1.22078C71.2176 1.2219 71.2132 1.224 71.2072 1.22624ZM70.9798 0.949374C70.9798 0.994609 70.9808 1.03984 70.9793 1.08494C70.9789 1.10076 70.984 1.10398 70.9986 1.10342C71.0284 1.10216 71.0581 1.10286 71.0878 1.09964C71.175 1.09054 71.2243 1.0404 71.2308 0.953576C71.236 0.883693 71.2001 0.830614 71.1333 0.808907C71.0895 0.794622 71.044 0.796164 70.9988 0.795184C70.984 0.795044 70.9788 0.798124 70.9793 0.813809C70.9806 0.859044 70.9798 0.90428 70.9798 0.949374Z" fill="#6E6E6E"/>
<path d="M37.4005 12C40.7161 12 43.4039 9.31371 43.4039 6C43.4039 2.68629 40.7161 0 37.4005 0C34.0849 0 31.3971 2.68629 31.3971 6C31.3971 9.31371 34.0849 12 37.4005 12Z" fill="#6E6E6E"/>
</svg>
