<svg width="51" height="20" viewBox="0 0 51 20" fill="none" xmlns="http://www.w3.org/2000/svg">
<path d="M23.8033 15.6238H21.931V1.0624H26.8944C28.1524 1.0624 29.225 1.48155 30.1026 2.31975C30.9998 3.15794 31.4484 4.18132 31.4484 5.38988C31.4484 6.62771 30.9998 7.65108 30.1026 8.47952C29.2348 9.30796 28.1622 9.71735 26.8944 9.71735H23.8033V15.6238ZM23.8033 2.85578V7.93373H26.9335C27.6746 7.93373 28.2987 7.68035 28.7862 7.18325C29.2836 6.68615 29.5371 6.08192 29.5371 5.39963C29.5371 4.72711 29.2836 4.13253 28.7862 3.63553C28.2986 3.11892 27.6843 2.86553 26.9335 2.86553H23.8033V2.85578Z" fill="#6E6E6E"/>
<path d="M36.3436 5.33144C37.7282 5.33144 38.8205 5.7018 39.62 6.44252C40.4197 7.18325 40.8194 8.19687 40.8194 9.48348V15.6238H39.0349V14.2399H38.9569C38.1865 15.3802 37.1529 15.9455 35.8657 15.9455C34.7639 15.9455 33.8472 15.6238 33.1061 14.9708C32.365 14.3178 31.9944 13.5088 31.9944 12.5342C31.9944 11.5011 32.3845 10.6824 33.1646 10.0781C33.9448 9.46407 34.9882 9.16191 36.2851 9.16191C37.3967 9.16191 38.3134 9.3666 39.0253 9.77589V9.34709C39.0253 8.69407 38.7718 8.14828 38.2549 7.69021C37.738 7.23213 37.1335 7.00793 36.4411 7.00793C35.3977 7.00793 34.5688 7.44649 33.9642 8.33347L32.3162 7.30033C33.2231 5.98445 34.5688 5.33144 36.3436 5.33144ZM33.9253 12.5634C33.9253 13.0507 34.1301 13.4601 34.5493 13.7817C34.9589 14.1034 35.4465 14.269 36.0023 14.269C36.7922 14.269 37.4943 13.9766 38.1087 13.3918C38.723 12.807 39.035 12.1247 39.035 11.3353C38.4499 10.8772 37.6406 10.6433 36.5972 10.6433C35.8366 10.6433 35.2027 10.8284 34.6956 11.189C34.1788 11.5692 33.9253 12.0273 33.9253 12.5634Z" fill="#6E6E6E"/>
<path d="M51 5.65301L44.7591 20H42.8282L45.149 14.9805L41.034 5.65301H43.072L46.0365 12.807H46.0755L48.9619 5.65301H51Z" fill="#6E6E6E"/>
<path d="M16.2001 6.78262H8.35215V9.99901L12.8719 10C12.6886 11.0702 12.0987 11.9824 11.1947 12.5906V12.5912C11.195 12.591 11.1954 12.5908 11.1957 12.5906L11.1143 14.5131L13.8861 14.6764C13.8857 14.6767 13.8853 14.6771 13.885 14.6774C15.456 13.2242 16.3562 11.076 16.3562 8.53806C16.3561 7.92786 16.3015 7.34404 16.2001 6.78262Z" fill="#6E6E6E"/>
<path d="M11.1956 12.5906C11.1953 12.5908 11.195 12.591 11.1947 12.5912C10.4459 13.0957 9.48172 13.3908 8.35404 13.3908C6.17459 13.3908 4.32574 11.923 3.66363 9.94445H3.66333C3.66343 9.94475 3.66353 9.94514 3.66363 9.94544L1.34961 9.57916L0.888815 12.0971C2.26392 14.8239 5.08964 16.6949 8.35414 16.6949C10.61 16.6949 12.5053 15.9537 13.885 14.6774C13.8854 14.6771 13.8858 14.6767 13.8861 14.6763L11.1956 12.5906Z" fill="#6E6E6E"/>
<path d="M3.40226 8.3479C3.40226 7.79236 3.49489 7.25533 3.66363 6.75046L2.94107 4.59837H0.888316C0.319846 5.72609 0 6.99897 0 8.3479C0 9.69684 0.320842 10.9697 0.888316 12.0974L0.888715 12.0971L3.66363 9.94544C3.66353 9.94514 3.66343 9.94474 3.66333 9.94435C3.49479 9.43988 3.40226 8.90315 3.40226 8.3479Z" fill="#6E6E6E"/>
<path d="M8.35404 0C5.09024 0 2.26332 1.87133 0.888316 4.59848L3.66353 6.75056C4.32564 4.77201 6.17449 3.3042 8.35394 3.3042C9.58551 3.3042 10.6885 3.72822 11.5593 4.55666L13.9435 2.17558C12.4955 0.827443 10.6076 0 8.35404 0Z" fill="#6E6E6E"/>
</svg>
