<svg width="17" height="17" viewBox="0 0 17 17" fill="none" xmlns="http://www.w3.org/2000/svg">
<path d="M15.646 12.2408C16.0729 12.2408 16.4189 11.8948 16.4189 11.468C16.4189 11.0413 16.0729 10.6953 15.646 10.6953C15.2192 10.6953 14.8732 11.0413 14.8732 11.468C14.8732 11.8948 15.2192 12.2408 15.646 12.2408Z" fill="#8B8B8B"/>
<path d="M13.9606 14.7297C14.3874 14.7297 14.7334 14.3838 14.7334 13.957C14.7334 13.5302 14.3874 13.1843 13.9606 13.1843C13.5338 13.1843 13.1878 13.5302 13.1878 13.957C13.1878 14.3838 13.5338 14.7297 13.9606 14.7297Z" fill="#8B8B8B"/>
<path d="M16.2272 9.27582C16.654 9.27582 17 8.92986 17 8.50309C17 8.07632 16.654 7.73036 16.2272 7.73036C15.8004 7.73036 15.4544 8.07632 15.4544 8.50309C15.4544 8.92986 15.8004 9.27582 16.2272 9.27582Z" fill="#8B8B8B"/>
<path d="M11.4574 16.4181C11.8843 16.4181 12.2303 16.0722 12.2303 15.6454C12.2303 15.2186 11.8843 14.8727 11.4574 14.8727C11.0306 14.8727 10.6846 15.2186 10.6846 15.6454C10.6846 16.0722 11.0306 16.4181 11.4574 16.4181Z" fill="#8B8B8B"/>
<path d="M8.50147 15.4545C7.38842 15.4559 6.29129 15.1901 5.30228 14.6795C4.31326 14.1689 3.46124 13.4285 2.81779 12.5203C2.17435 11.6122 1.75827 10.5629 1.60453 9.46065C1.45078 8.35837 1.56384 7.2353 1.93423 6.18578C2.30462 5.13626 2.9215 4.19095 3.73306 3.42927C4.54462 2.66759 5.52714 2.11179 6.59809 1.80856C7.66904 1.50533 8.79713 1.46353 9.88759 1.68667C10.978 1.90982 11.999 2.39138 12.8647 3.09091H11.5927C11.3877 3.09091 11.1912 3.17232 11.0462 3.31724C10.9013 3.46215 10.8199 3.6587 10.8199 3.86364C10.8199 4.06858 10.9013 4.26512 11.0462 4.41004C11.1912 4.55495 11.3877 4.63636 11.5927 4.63636H14.6839C14.8889 4.63636 15.0854 4.55495 15.2304 4.41004C15.3753 4.26512 15.4567 4.06858 15.4567 3.86364V0.772727C15.4567 0.567787 15.3753 0.371241 15.2304 0.226327C15.0854 0.0814121 14.8889 0 14.6839 0C14.4789 0 14.2824 0.0814121 14.1375 0.226327C13.9925 0.371241 13.9111 0.567787 13.9111 0.772727V1.95577C12.8602 1.08703 11.6156 0.483936 10.2825 0.197432C8.94942 -0.0890729 7.56693 -0.0505729 6.25184 0.30968C4.93675 0.669933 3.72768 1.34136 2.72676 2.26724C1.72584 3.19312 0.962469 4.34627 0.501124 5.62927C0.0397785 6.91228 -0.105989 8.28746 0.0761348 9.63866C0.258258 10.9899 0.762923 12.2774 1.5475 13.3925C2.33208 14.5076 3.37353 15.4175 4.58387 16.0454C5.79422 16.6733 7.13792 17.0007 8.50147 17C8.70643 17 8.903 16.9186 9.04793 16.7737C9.19286 16.6288 9.27428 16.4322 9.27428 16.2273C9.27428 16.0223 9.19286 15.8258 9.04793 15.6809C8.903 15.536 8.70643 15.4545 8.50147 15.4545Z" fill="#8B8B8B"/>
<path d="M11.3663 11.3645C11.5111 11.2196 11.5925 11.0231 11.5925 10.8182C11.5925 10.6133 11.5111 10.4168 11.3663 10.2719L9.27428 8.18009V3.86364C9.27428 3.6587 9.19286 3.46215 9.04793 3.31724C8.903 3.17232 8.70643 3.09091 8.50147 3.09091C8.29651 3.09091 8.09995 3.17232 7.95502 3.31724C7.81009 3.46215 7.72867 3.6587 7.72867 3.86364V8.5C7.72871 8.70492 7.81016 8.90144 7.9551 9.04632L10.2735 11.3645C10.4184 11.5094 10.615 11.5907 10.8199 11.5907C11.0248 11.5907 11.2213 11.5094 11.3663 11.3645Z" fill="#8B8B8B"/>
</svg>
