<svg width="19" height="19" viewBox="0 0 19 19" fill="none" xmlns="http://www.w3.org/2000/svg">
<path d="M18.7938 17.7986L13.6856 12.6903C14.8055 11.3475 15.4814 9.622 15.4814 7.74067C15.4814 3.47239 12.009 0 7.74072 0C3.47242 0 0 3.47239 0 7.74067C0 12.0089 3.47242 15.4813 7.74072 15.4813C9.62207 15.4813 11.3475 14.8054 12.6904 13.6855L17.7987 18.7938C17.9361 18.9312 18.1163 19 18.2963 19C18.4762 19 18.6564 18.9312 18.7938 18.7938C19.0687 18.5188 19.0687 18.0734 18.7938 17.7986ZM1.4074 7.74067C1.4074 4.24857 4.24825 1.40739 7.74072 1.40739C11.2332 1.40739 14.074 4.24857 14.074 7.74067C14.074 11.2328 11.2332 14.0739 7.74072 14.0739C4.24825 14.0739 1.4074 11.2328 1.4074 7.74067Z" fill="white"/>
</svg>
