<svg width="49" height="29" viewBox="0 0 49 29" fill="none" xmlns="http://www.w3.org/2000/svg">
<path d="M47.381 22.313C47.34 22.237 47.281 22.18 47.204 22.139C47.13 22.098 47.054 22.077 46.975 22.077C46.895 22.077 46.819 22.098 46.745 22.139C46.671 22.18 46.61 22.237 46.569 22.313C46.528 22.386 46.507 22.464 46.507 22.545C46.507 22.626 46.528 22.704 46.569 22.777C46.612 22.851 46.67 22.911 46.743 22.952C46.817 22.993 46.895 23.014 46.977 23.014C47.056 23.014 47.134 22.993 47.208 22.952C47.281 22.911 47.339 22.851 47.381 22.777C47.422 22.704 47.443 22.625 47.443 22.545C47.443 22.464 47.423 22.386 47.381 22.313ZM47.135 22.719H47.033L46.971 22.565H46.91V22.719H46.828V22.327H46.992C47.012 22.327 47.053 22.328 47.094 22.349C47.115 22.369 47.135 22.408 47.135 22.447C47.135 22.49 47.115 22.531 47.074 22.549L47.135 22.719Z" fill="#6E6E6E"/>
<path d="M47.013 22.407C47.013 22.399 46.972 22.399 46.951 22.399H46.91V22.5H46.972C46.972 22.5 46.993 22.5 47.013 22.492C47.034 22.483 47.034 22.464 47.034 22.446C47.034 22.431 47.034 22.415 47.013 22.407Z" fill="#6E6E6E"/>
<path d="M33.935 0C30.192 0.001 26.782 1.42 24.212 3.748C21.64 1.421 18.232 0.00300026 14.494 0.00300026C14.463 0.00300026 14.432 0.00300026 14.401 0.00300026C6.443 0.0550003 0 6.529 0 14.498C0 22.5 6.494 28.992 14.494 28.992C18.232 28.992 21.639 27.574 24.211 25.247C23.674 24.762 23.188 24.225 22.729 23.663H25.723C25.271 24.217 24.778 24.735 24.251 25.215H24.248C24.249 25.217 24.249 25.217 24.249 25.217C24.237 25.228 24.224 25.236 24.212 25.248C26.783 27.579 30.197 28.998 33.941 28.997C41.947 28.995 48.432 22.503 48.43 14.499C48.43 14.496 48.43 14.494 48.43 14.492C48.428 6.488 41.937 0 33.935 0ZM22.894 5.246H25.648C26.056 5.737 26.433 6.256 26.773 6.798H21.86C22.174 6.279 22.522 5.748 22.894 5.246ZM21.002 8.321H27.607C27.844 8.824 28.052 9.342 28.232 9.874H20.219C20.298 9.724 20.578 9.12 21.002 8.321ZM13.698 17.974H11.978L13.002 12.604L10.647 17.974H9.091L8.804 12.64L7.78 17.974H6.223L7.555 10.992H10.238L10.361 15.316L12.266 10.992H15.052L13.698 17.974ZM19.782 14.957L19.413 16.974L19.352 17.335L19.311 17.623L19.29 17.817L19.27 17.971H17.837L17.878 17.384C17.449 17.852 16.854 18.069 16.076 18.069C15.154 18.069 14.519 17.436 14.519 16.52C14.519 15.138 15.625 14.33 17.529 14.33C17.713 14.33 17.959 14.347 18.225 14.374C18.266 14.187 18.287 14.109 18.287 14.005C18.287 13.63 17.979 13.49 17.181 13.49C16.689 13.49 16.136 13.549 15.768 13.647L15.522 13.709L15.379 13.746L15.604 12.467C16.464 12.249 17.017 12.168 17.652 12.168C19.126 12.168 19.905 12.745 19.905 13.833C19.905 14.115 19.885 14.326 19.782 14.957ZM23.204 12.155C24.616 12.155 25.518 12.958 25.518 14.217C25.518 14.638 25.456 15.045 25.311 15.621H21.913C21.892 15.708 21.892 15.747 21.892 15.801C21.892 16.458 22.404 16.793 23.387 16.793C24.002 16.793 24.555 16.683 25.169 16.433L24.883 17.855C24.309 18.009 23.736 18.084 23.142 18.084C21.217 18.084 20.213 17.211 20.213 15.538C20.213 13.591 21.483 12.157 23.204 12.155ZM26.791 22.172H21.648C21.336 21.672 21.043 21.159 20.792 20.62H27.635C27.384 21.157 27.103 21.673 26.791 22.172ZM29.942 13.599C29.491 13.547 29.041 13.516 28.692 13.516C28.138 13.516 27.852 13.672 27.852 13.977C27.852 14.243 27.934 14.307 28.651 14.595C29.53 14.94 29.88 15.397 29.88 16.176C29.88 17.472 29.04 18.071 27.196 18.071C26.972 18.071 26.665 18.054 26.255 18.024C26.05 18.009 25.887 17.993 25.783 17.972L25.476 17.916L25.394 17.9L25.64 16.59C26.193 16.746 26.666 16.814 27.197 16.814C27.873 16.814 28.18 16.656 28.18 16.302C28.18 16.042 28.077 15.958 27.381 15.675C26.46 15.304 26.05 14.808 26.05 14.092C26.05 13.043 26.726 12.17 28.652 12.17C29.062 12.17 29.738 12.22 30.187 12.282L29.942 13.599ZM32.627 16.703C32.81 16.703 32.953 16.685 33.076 16.648L32.851 17.908C32.38 18.037 32.012 18.094 31.622 18.094C30.741 18.094 30.27 17.651 30.27 16.846C30.27 16.686 30.29 16.516 30.311 16.336L30.414 15.777L30.495 15.328L31.294 10.992H32.993L32.748 12.296H33.628L33.382 13.678H32.501L32.051 16.047C32.03 16.15 32.03 16.228 32.03 16.281C32.03 16.576 32.215 16.701 32.627 16.703ZM36.816 13.894C35.997 13.894 35.732 14.504 35.117 17.977H33.396L34.441 12.297H35.998L35.834 13.159C36.367 12.488 36.775 12.236 37.329 12.236C37.391 12.236 37.453 12.242 37.514 12.25C37.514 12.253 37.577 12.264 37.66 12.284C37.68 12.29 37.7 12.29 37.844 12.346L37.232 13.951L37.027 13.909C36.945 13.899 36.884 13.894 36.816 13.894ZM39.855 18.126C37.905 18.126 37.129 16.948 37.129 15.507C37.129 13.496 38.46 12.131 40.508 12.131C42.292 12.131 43.234 13.253 43.234 14.693C43.234 15.046 43.234 15.07 43.193 15.4C42.926 17.289 41.615 18.128 39.855 18.126ZM43.377 17.974C43.131 17.974 42.926 17.775 42.926 17.529C42.926 17.287 43.131 17.088 43.377 17.088C43.623 17.088 43.828 17.287 43.828 17.529C43.828 17.776 43.623 17.974 43.377 17.974Z" fill="#6E6E6E"/>
<path d="M43.377 17.193C43.193 17.193 43.029 17.344 43.029 17.529C43.029 17.719 43.193 17.869 43.377 17.869C43.562 17.869 43.705 17.717 43.705 17.529C43.705 17.345 43.562 17.193 43.377 17.193ZM43.54 17.727H43.437L43.375 17.574H43.313V17.727H43.231V17.334H43.395C43.417 17.334 43.458 17.336 43.499 17.357C43.519 17.376 43.54 17.415 43.54 17.455C43.54 17.497 43.519 17.539 43.478 17.557L43.54 17.727Z" fill="#6E6E6E"/>
<path d="M43.417 17.414C43.418 17.405 43.377 17.405 43.357 17.405H43.314V17.506H43.376C43.376 17.506 43.397 17.506 43.417 17.498C43.438 17.489 43.438 17.47 43.438 17.453C43.438 17.438 43.438 17.422 43.417 17.414Z" fill="#6E6E6E"/>
<path d="M23.183 13.456C22.63 13.456 22.241 13.817 22.077 14.475L23.982 14.479C23.982 14.355 23.982 14.259 23.982 14.185C23.982 13.724 23.695 13.456 23.183 13.456Z" fill="#6E6E6E"/>
<path d="M17.631 15.423C16.67 15.422 16.178 15.713 16.178 16.287C16.178 16.64 16.404 16.866 16.792 16.866C17.489 16.866 17.98 16.284 18.021 15.444C17.836 15.425 17.754 15.423 17.631 15.423Z" fill="#6E6E6E"/>
<path d="M40.468 13.521C39.587 13.521 39.055 14.556 39.055 15.468C39.055 16.24 39.423 16.758 40.038 16.746C40.408 16.746 41.205 16.237 41.349 15.354C41.389 15.147 41.41 14.92 41.41 14.673C41.41 14.081 41.165 13.519 40.468 13.521Z" fill="#6E6E6E"/>
</svg>
