<svg width="56" height="15" viewBox="0 0 56 15" fill="none" xmlns="http://www.w3.org/2000/svg">
<path d="M10.0368 2.44357C9.85351 2.07973 9.56356 1.77964 9.20363 1.5543C8.82813 1.32676 8.38488 1.16737 7.8783 1.07284C7.36283 0.980507 6.76738 0.938736 6.0775 0.932141L2.89249 0.93434C2.56144 0.938737 2.23705 1.19376 2.15928 1.51033L0.0163212 10.746C-0.0614432 11.0582 0.146299 11.3198 0.477353 11.3198H2.00265C2.3337 11.3198 2.66142 11.0659 2.73474 10.746L3.25798 8.50359C3.32797 8.19141 3.65458 7.9309 3.98897 7.9309H4.42556C6.29079 7.9287 7.73499 7.55166 8.77259 6.7965C9.81574 6.04023 10.3301 5.04104 10.3301 3.80331C10.329 3.26139 10.239 2.80632 10.0368 2.44357ZM6.74738 5.46094C6.28635 5.79511 5.64535 5.96219 4.81883 5.96219H4.44556C4.11339 5.96219 3.91009 5.70277 3.9823 5.38619L4.44111 3.42518C4.50555 3.1108 4.83993 2.85029 5.16765 2.85248L5.66757 2.84919C6.2508 2.84919 6.69628 2.94922 6.99401 3.14268C7.2884 3.33394 7.43615 3.63843 7.43393 4.04184C7.44282 4.65521 7.20619 5.12678 6.74738 5.46094Z" fill="#6E6E6E"/>
<path d="M53.5182 1.65543L53.4227 1.68401L53.2949 1.7016L53.1383 1.67741L53.0583 1.60047L53.0216 1.47955L53.0194 1.29818V0.626557H53.5293V0.418803H53.0194V0H52.7672V0.418803H52.5961V0.626557H52.7672V1.40811L52.885 1.79503L53.2316 1.91814L53.3771 1.90605L53.5315 1.87637V1.65543H53.5182Z" fill="#6E6E6E"/>
<path d="M55.8834 0.525427L55.519 0.377034L55.2501 0.430896L54.9768 0.613365L54.818 0.43859L54.5602 0.378133L54.3125 0.431994L54.0781 0.581488V0.418803H53.8304V1.88627H54.077V0.790341L54.2847 0.66283L54.4914 0.612266L54.6602 0.641946L54.7435 0.726586L54.7802 0.867287L54.7924 1.04866V1.88737H55.0402V0.948629L55.0357 0.870585L55.0313 0.799134L55.2424 0.666128L55.4512 0.614466L55.6145 0.644143L55.7034 0.728785L55.7345 0.870585L55.7512 1.04976V1.88847H56V0.935439L55.8834 0.525427Z" fill="#6E6E6E"/>
<path d="M17.3922 3.76374C16.8168 3.44277 15.908 3.28228 14.666 3.28228C14.0517 3.28228 13.4396 3.32955 12.8208 3.42408C12.3642 3.49333 12.3198 3.50652 12.0387 3.56698C11.4588 3.69229 11.3677 4.26499 11.3677 4.26499L11.1811 5.02455C11.0755 5.50931 11.3577 5.49062 11.4755 5.44995C11.7287 5.3752 11.8698 5.29826 12.3875 5.18394C12.8819 5.07292 13.4029 4.98937 13.8162 4.99487C14.4261 4.99487 14.8926 5.05862 15.2037 5.18833C15.5103 5.32024 15.6636 5.54668 15.6636 5.87425L15.637 6.0875L15.417 6.2216C14.5516 6.27547 13.9261 6.35461 13.1674 6.46343C12.4253 6.56566 11.7743 6.74483 11.2333 6.98996C10.6523 7.24278 10.2212 7.58244 9.92017 8.01444C9.62911 8.44863 9.48358 8.97516 9.48358 9.59292C9.48358 10.1744 9.69465 10.6548 10.1046 11.0263C10.5167 11.3913 11.0611 11.5693 11.7121 11.5693C12.1242 11.5671 12.4431 11.5352 12.6697 11.4814L13.4085 11.2297L14.0339 10.8867L14.6094 10.5108L14.6171 10.5218L14.5594 10.7636L14.556 10.7735V10.7757C14.4938 11.0703 14.6738 11.3121 14.9637 11.3407L14.9693 11.3473H16.3857L16.4057 11.3385C16.7101 11.3033 16.9956 11.0615 17.0623 10.7735L18.1743 6.01055L18.2321 5.62253L18.2587 5.25868C18.2632 4.58376 17.9688 4.08361 17.3922 3.76374ZM14.9326 9.11916L14.6949 9.42914L14.095 9.73582C13.8128 9.84904 13.5451 9.9062 13.2974 9.9062C12.9219 9.9062 12.6275 9.85234 12.4286 9.74241L12.1342 9.17632C12.1342 8.86963 12.2053 8.6267 12.3575 8.43984L13.0041 8.00454C13.2807 7.91221 13.6184 7.83416 14.0095 7.7803C14.3583 7.73743 15.0471 7.65939 15.137 7.65719L15.2426 7.84076C15.2215 7.94519 15.026 8.75421 14.9326 9.11916Z" fill="#6E6E6E"/>
<path d="M45.0963 3.77034C44.5175 3.44936 43.6099 3.28778 42.3712 3.28778C41.7569 3.28778 41.1437 3.33504 40.5271 3.43287C40.0694 3.49883 40.0239 3.51312 39.7417 3.57248C39.1629 3.69669 39.0729 4.27158 39.0729 4.27158L38.8863 5.03005C38.7819 5.5148 39.0574 5.49282 39.1862 5.45544C39.4406 5.3807 39.5773 5.30705 40.0905 5.18833C40.5827 5.07841 41.1081 4.99707 41.5225 4.99927C42.1302 4.99927 42.5968 5.06412 42.9067 5.19383C43.2155 5.32574 43.3666 5.55437 43.3666 5.87865L43.3433 6.0908L43.1255 6.2282C42.2513 6.27986 41.6247 6.35901 40.8737 6.46783C40.1338 6.57006 39.4806 6.74813 38.9385 6.99436C38.3597 7.24828 37.9231 7.58794 37.6254 8.02103C37.331 8.45522 37.1877 8.98065 37.1877 9.59292C37.1877 10.1788 37.3965 10.6592 37.812 11.0285C38.2264 11.3923 38.7652 11.5748 39.4162 11.5748C39.8261 11.5704 40.145 11.544 40.3727 11.4858L41.1092 11.2374L41.7402 10.8944L42.3112 10.5141L42.3212 10.5262L42.269 10.7702L42.2635 10.7746L42.2657 10.779C42.1968 11.0736 42.3779 11.3176 42.6712 11.344L42.6734 11.3495H42.7001C42.8923 11.3495 43.5566 11.3495 43.8732 11.3495H44.0887L44.112 11.3418C44.4131 11.3055 44.6975 11.0637 44.7608 10.7724L45.8762 6.01605L45.9351 5.62582L45.9673 5.26088C45.9684 4.58816 45.6773 4.09021 45.0963 3.77034ZM42.6423 9.12575L42.3946 9.43903L41.8002 9.74352C41.518 9.85564 41.2492 9.91389 41.0059 9.91389C40.6182 9.91389 40.3316 9.85893 40.1383 9.74901L39.8406 9.18511C39.8406 8.87733 39.9128 8.6366 40.0583 8.44643C40.2061 8.26726 40.4316 8.11996 40.7115 8.01224C40.9848 7.9199 41.3225 7.84515 41.7158 7.78909C42.0624 7.74622 42.749 7.66598 42.8378 7.66488L42.9456 7.84845C42.93 7.95288 42.7334 8.75861 42.6423 9.12575Z" fill="#6E6E6E"/>
<path d="M37.7365 2.47765C37.5454 2.11161 37.2588 1.81592 36.8966 1.58508C36.5256 1.35644 36.0857 1.19595 35.5713 1.10362C35.0658 1.01458 34.4626 0.966218 33.7772 0.965118L30.5877 0.967316C30.2556 0.972812 29.9367 1.22783 29.8601 1.54111L27.7149 10.7812C27.6371 11.0945 27.8504 11.3539 28.1748 11.3539L29.7023 11.3517C30.0267 11.3539 30.3589 11.0967 30.4355 10.7801L30.9521 8.53657C31.0276 8.22439 31.3554 7.96167 31.6853 7.96387H32.1219C33.9894 7.96387 35.4369 7.58354 36.4789 6.83057C37.5087 6.06881 38.0298 5.07182 38.0298 3.83299C38.0242 3.29327 37.9298 2.83709 37.7365 2.47765ZM34.447 5.49941C33.9871 5.82698 33.345 5.99406 32.5229 5.99406H32.143C31.8153 5.99736 31.6031 5.73355 31.6764 5.41917L32.1386 3.46145C32.2063 3.14818 32.5374 2.88546 32.8673 2.88876L33.3617 2.88546C33.9482 2.88876 34.3882 2.98439 34.6881 3.17785C34.987 3.37132 35.128 3.6747 35.1314 4.07702C35.1347 4.69039 34.9047 5.16305 34.447 5.49941Z" fill="#6E6E6E"/>
<path d="M50.8153 1.61476C50.8853 1.29928 50.6854 1.04316 50.3576 1.04756H48.9912C48.7113 1.04756 48.4591 1.25311 48.3358 1.50593L48.2602 1.62245L48.1913 1.92144L46.2817 10.5108L46.2195 10.7746L46.2217 10.7812C46.1584 11.0637 46.3339 11.2769 46.6049 11.3176L46.6283 11.3495H48.0469C48.3247 11.3495 48.5857 11.1406 48.7046 10.8834L48.7779 10.7735L50.8198 1.61586L50.8153 1.61476Z" fill="#6E6E6E"/>
<path d="M27.7571 3.3977C27.396 3.40209 25.9285 3.3977 25.9285 3.3977C25.5997 3.3977 25.1775 3.66041 24.9687 3.97369C24.9687 3.97369 22.7846 7.68247 22.5724 8.05511L22.3191 8.05181L21.6393 3.99897C21.5637 3.6802 21.2271 3.40759 20.8083 3.40759L19.4419 3.40979C19.113 3.40979 18.9108 3.66921 18.9853 3.98578C18.9853 3.98578 20.0229 9.82815 20.2306 11.2033C20.3273 11.9617 20.2184 12.0969 20.2184 12.0969L18.8675 14.4251C18.6675 14.7417 18.7753 15 19.103 15L20.6828 14.9978C21.0116 14.9978 21.4437 14.7417 21.6393 14.424L27.716 4.25399C27.716 4.25399 28.3003 3.38561 27.7571 3.3977Z" fill="#6E6E6E"/>
</svg>
