<svg width="21" height="26" viewBox="0 0 21 26" fill="none" xmlns="http://www.w3.org/2000/svg">
<path d="M10.8516 0C3.76619 0.00108335 0 4.5674 0 9.54647C0 11.8551 1.28268 14.7357 3.33648 15.649C3.92235 15.9144 3.84481 15.5905 4.34884 13.6513C4.38869 13.4899 4.36822 13.3501 4.23899 13.1995C1.30314 9.78372 3.66603 2.76146 10.4327 2.76146C20.2257 2.76146 18.3959 16.3921 12.1365 16.3921C10.5232 16.3921 9.32125 15.1181 9.70142 13.5419C10.1624 11.6644 11.0649 9.64614 11.0649 8.29303C11.0649 4.88265 6.01385 5.38858 6.01385 9.90722C6.01385 11.3037 6.50495 12.2462 6.50495 12.2462C6.50495 12.2462 4.87979 18.8503 4.57823 20.0842C4.06775 22.1729 4.64716 25.554 4.69778 25.8454C4.72901 26.0058 4.90779 26.0567 5.00795 25.9245C5.16842 25.7133 7.13283 22.8944 7.68316 20.8566C7.88348 20.1145 8.70522 17.1028 8.70522 17.1028C9.24694 18.0865 10.8086 18.9099 12.4725 18.9099C17.4223 18.9099 21 14.5331 21 9.1023C20.9828 3.89572 16.5532 0 10.8516 0Z" fill="#6E6E6E"/>
</svg>
