<svg width="22" height="26" viewBox="0 0 22 26" fill="none" xmlns="http://www.w3.org/2000/svg">
<path d="M21.9882 6.51005C20.5569 6.51005 19.2363 6.01772 18.1759 5.18718C16.9596 4.23509 16.0858 2.83848 15.7772 1.22877C15.7008 0.831048 15.6596 0.42061 15.6557 0H11.5671L11.5622 17.954C11.5622 19.6527 10.4969 21.0931 9.02003 21.5996C8.59143 21.7466 8.12854 21.8163 7.64655 21.7888C7.03133 21.7537 6.4548 21.561 5.95371 21.2497C4.88736 20.5875 4.16437 19.3862 4.14478 18.012C4.11392 15.8642 5.78619 14.1131 7.85326 14.1131C8.26128 14.1131 8.65315 14.1822 9.02003 14.3079V9.9975C8.63306 9.93799 8.23924 9.90697 7.84101 9.90697C5.5785 9.90697 3.46245 10.8835 1.94987 12.6427C0.806612 13.9722 0.120855 15.6684 0.0150521 17.4469C-0.123569 19.7834 0.69983 22.0045 2.29666 23.6432C2.53129 23.8837 2.77767 24.107 3.03532 24.313C4.40439 25.407 6.07813 26 7.84101 26C8.23924 26 8.63306 25.9695 9.02003 25.91C10.6668 25.6567 12.1863 24.874 13.3854 23.6432C14.8588 22.1311 15.6729 20.1237 15.6817 17.987L15.6606 8.49866C16.3635 9.06168 17.132 9.52755 17.9569 9.88917C19.2398 10.4512 20.6 10.736 21.9999 10.7355V6.50903C22.0009 6.51005 21.9892 6.51005 21.9882 6.51005Z" fill="#6E6E6E"/>
</svg>
