<svg width="30" height="25" viewBox="0 0 30 25" fill="none" xmlns="http://www.w3.org/2000/svg">
<path d="M30 2.95699C28.875 3.45622 27.7125 3.80184 26.475 3.95545C27.75 3.1874 28.725 1.95853 29.175 0.46083C27.975 1.19048 26.6625 1.68971 25.275 1.99693C24.15 0.768049 22.5375 0 20.775 0C17.3625 0 14.625 2.84178 14.625 6.298C14.625 6.79724 14.6625 7.25806 14.775 7.71889C9.675 7.48848 5.175 4.95392 2.1375 1.15207C-0.0374998 5.14593 2.4 8.44854 4.0125 9.56221C3.0375 9.56221 2.0625 9.25499 1.2375 8.79416C1.2375 11.9048 3.375 14.4777 6.15 15.0538C5.55 15.2458 4.2 15.361 3.375 15.169C4.1625 17.6651 6.45 19.5084 9.1125 19.5469C7.0125 21.2366 3.9375 22.5806 0 22.1582C2.7375 23.9631 5.9625 25 9.45 25C20.775 25 26.925 15.3994 26.925 7.10445C26.925 6.83564 26.925 6.56682 26.8875 6.298C28.1625 5.33794 29.2125 4.22427 30 2.95699Z" fill="#6E6E6E"/>
</svg>
