<svg width="65" height="20" viewBox="0 0 65 20" fill="none" xmlns="http://www.w3.org/2000/svg">
<path d="M26.0264 0.332766L22.723 19.7093H28.0062L31.3124 0.332766H26.0264Z" fill="#6F6F6F"/>
<path d="M18.2931 0.354499L13.1185 13.5688L12.5668 11.5735C11.5463 9.16944 8.64918 5.71681 5.24794 3.54092L9.97951 19.6998L15.5699 19.6903L23.8902 0.350424L18.2931 0.354499Z" fill="#6F6F6F"/>
<path d="M10.5611 1.74126C10.254 0.56095 9.36395 0.209167 8.25919 0.167062H0.0679433L0 0.552801C6.37444 2.09847 10.5924 5.82275 12.3426 10.3008L10.5611 1.74126Z" fill="#6F6F6F"/>
<path d="M42.0202 4.04754C43.7487 4.02037 45.0016 4.39796 45.9745 4.78913L46.4515 5.01324L47.1662 0.813581C46.1199 0.421051 44.4798 0 42.4333 0C37.2125 0 33.5327 2.62818 33.5042 6.39457C33.4702 9.17759 36.1255 10.7314 38.1311 11.6591C40.1898 12.6098 40.8801 13.2143 40.8706 14.0632C40.8543 15.3603 39.2291 15.9552 37.7113 15.9552C35.5955 15.9552 34.4717 15.6632 32.7364 14.9406L32.0557 14.6309L31.3124 18.9677C32.5489 19.5097 34.8305 19.9756 37.199 20C42.7526 20 46.3618 17.4031 46.3998 13.3786C46.4229 11.1769 45.0138 9.49677 41.9604 8.11817C40.1124 7.21902 38.9818 6.62139 38.9927 5.71409C38.9927 4.90866 39.952 4.04754 42.0202 4.04754Z" fill="#6F6F6F"/>
<path d="M60.725 0.354499H56.643C55.3751 0.354499 54.4321 0.69949 53.875 1.96265L46.0302 19.7202H51.5785C51.5785 19.7202 52.4835 17.3324 52.6887 16.8095C53.2961 16.8095 58.6867 16.8177 59.4545 16.8177C59.6121 17.4941 60.0986 19.7202 60.0986 19.7202H65L60.725 0.354499ZM54.2092 12.8435C54.6441 11.7311 56.3141 7.42818 56.3141 7.42818C56.2856 7.48115 56.7449 6.30764 57.018 5.57827L57.374 7.2489C57.374 7.2489 58.3864 11.875 58.5984 12.8435H54.2092Z" fill="#6F6F6F"/>
</svg>
