<svg version="1.0" xmlns="http://www.w3.org/2000/svg"
 width="512.000000pt" height="512.000000pt" viewBox="0 0 512.000000 512.000000"
 preserveAspectRatio="xMidYMid meet">

<g transform="translate(0.000000,512.000000) scale(0.100000,-0.100000)"
fill="#ffffff" stroke="none">
<path d="M2410 4834 c-30 -8 -93 -33 -139 -55 -76 -37 -102 -59 -255 -209 -96
-94 -191 -178 -216 -191 -42 -22 -59 -24 -280 -29 -228 -6 -238 -7 -320 -36
-197 -69 -341 -220 -405 -424 -13 -42 -19 -111 -24 -290 -6 -192 -11 -242 -25
-274 -11 -24 -87 -110 -191 -217 -163 -167 -177 -183 -219 -271 -52 -109 -66
-169 -66 -281 0 -104 19 -179 71 -286 37 -76 59 -102 209 -255 94 -96 178
-191 191 -216 22 -42 24 -60 30 -280 7 -255 12 -285 73 -410 43 -90 176 -223
266 -266 124 -60 156 -66 410 -73 192 -6 242 -11 274 -25 24 -11 110 -87 217
-191 167 -163 183 -177 271 -219 109 -52 169 -66 281 -66 108 0 192 21 291 72
69 36 106 67 251 209 96 94 190 177 215 190 42 22 59 24 280 29 227 6 238 8
320 36 197 69 341 220 405 424 13 42 19 111 24 290 6 192 11 242 25 274 11 24
87 110 190 215 137 141 178 190 207 246 63 122 74 166 74 305 0 139 -11 183
-74 305 -29 56 -70 105 -207 246 -103 105 -179 191 -190 215 -14 32 -19 81
-24 274 -6 227 -8 238 -36 320 -69 197 -220 341 -424 405 -42 13 -111 19 -290
24 -192 6 -242 11 -274 25 -24 11 -110 86 -215 190 -193 188 -265 236 -402
270 -80 20 -224 20 -299 0z m255 -321 c40 -13 80 -46 225 -187 277 -269 316
-286 670 -295 209 -6 240 -9 281 -28 66 -30 124 -86 156 -151 28 -56 28 -61
34 -292 9 -353 26 -392 295 -670 188 -193 204 -220 204 -330 0 -110 -16 -136
-204 -330 -269 -278 -286 -317 -296 -670 -7 -268 -15 -302 -93 -378 -80 -78
-110 -86 -377 -93 -353 -9 -379 -21 -646 -280 -203 -197 -238 -219 -354 -219
-116 0 -151 22 -354 219 -267 259 -293 271 -646 280 -267 7 -297 15 -377 93
-78 77 -86 110 -94 378 -9 353 -21 380 -280 646 -197 202 -219 238 -219 353 0
111 16 137 204 331 269 278 286 317 295 670 8 268 16 301 94 378 80 78 110 86
377 93 202 5 244 9 300 27 120 39 184 86 362 264 139 138 177 170 220 187 66
25 158 27 223 4z"/>
<path d="M3125 3124 c-16 -8 -199 -183 -405 -389 l-375 -375 -160 161 c-88 88
-169 165 -180 171 -64 36 -140 25 -191 -26 -51 -51 -62 -127 -26 -191 6 -11
116 -124 244 -252 189 -187 241 -233 273 -243 87 -25 77 -33 578 468 494 494
486 484 467 569 -23 99 -136 153 -225 107z"/>
</g>
</svg>
