<svg version="1.0" xmlns="http://www.w3.org/2000/svg"
 width="512.000000pt" height="512.000000pt" viewBox="0 0 512.000000 512.000000"
 preserveAspectRatio="xMidYMid meet">

<g transform="translate(0.000000,512.000000) scale(0.100000,-0.100000)"
fill="#ffffff" stroke="none">
<path d="M2430 5114 c-14 -2 -56 -9 -95 -15 -177 -28 -400 -126 -556 -243
-207 -156 -370 -384 -450 -629 -41 -126 -59 -237 -66 -419 l-6 -158 -106 0
c-174 0 -282 -39 -381 -139 -64 -63 -115 -158 -130 -240 -13 -70 -13 -482 0
-552 24 -127 127 -267 238 -323 87 -44 153 -56 308 -56 l141 0 18 -47 c53
-140 167 -326 258 -420 22 -24 39 -44 36 -47 -2 -2 -146 -29 -319 -60 -173
-32 -352 -66 -398 -77 -263 -61 -481 -247 -588 -502 -30 -72 -244 -987 -244
-1045 0 -48 32 -98 80 -123 33 -18 117 -19 2388 -19 2603 0 2396 -5 2444 62
40 57 36 86 -71 553 -56 242 -111 469 -122 505 -42 134 -121 261 -220 356 -80
75 -140 117 -234 160 -93 43 -163 59 -555 130 -173 31 -317 58 -319 60 -3 3
14 23 36 47 91 94 205 280 258 420 l18 47 138 0 c76 0 162 5 191 11 136 28
261 126 323 253 43 86 55 173 55 391 0 218 -12 305 -55 391 -62 127 -187 225
-323 253 -29 6 -99 11 -156 11 l-103 0 -6 158 c-11 260 -51 426 -148 613 -180
342 -495 583 -879 670 -81 19 -340 34 -400 23z m370 -324 c117 -28 287 -114
387 -195 151 -121 283 -321 332 -502 11 -40 19 -73 18 -73 -1 0 -38 34 -82 76
-247 234 -555 357 -895 357 -338 0 -650 -124 -895 -357 -44 -42 -81 -76 -82
-76 -11 0 49 167 87 245 139 281 404 480 720 540 103 20 299 13 410 -15z m-40
-655 c36 -8 83 -20 105 -27 38 -12 40 -15 43 -59 4 -66 -23 -183 -61 -264 -86
-178 -224 -299 -412 -363 l-80 -26 -383 -4 -383 -3 7 28 c3 15 21 65 40 111
134 335 450 578 809 622 84 10 226 3 315 -15z m625 -420 c30 -44 67 -111 84
-148 31 -69 64 -168 58 -174 -8 -8 -158 27 -216 51 -62 25 -170 96 -204 133
-16 19 -16 23 18 95 19 42 45 115 57 162 l21 87 64 -63 c36 -35 89 -99 118
-143z m-2113 -397 c-4 -18 -7 -178 -7 -355 l0 -323 -101 0 c-125 0 -175 21
-211 90 -22 41 -23 53 -23 265 0 212 1 224 23 265 37 70 85 90 218 90 l109 0
-8 -32z m1700 -19 c128 -104 338 -186 521 -205 l67 -6 0 -193 c0 -106 -3 -206
-6 -223 l-6 -31 -409 -3 -409 -3 -37 -37 c-32 -33 -37 -44 -40 -95 -5 -68 17
-111 69 -140 30 -16 69 -18 390 -21 l358 -3 -26 -52 c-125 -246 -358 -431
-642 -509 -113 -31 -373 -31 -485 0 -377 104 -644 382 -733 762 -11 44 -17
143 -21 308 l-5 242 365 0 c208 0 399 5 443 11 164 23 329 92 459 193 39 30
73 55 77 55 5 1 36 -22 70 -50z m1144 25 c73 -54 83 -94 83 -329 0 -235 -10
-275 -83 -329 -23 -18 -45 -21 -144 -24 l-117 -4 3 269 c2 147 -1 308 -5 356
l-9 89 122 -4 c105 -3 127 -6 150 -24z m-2042 -1780 c48 -20 125 -45 172 -57
47 -11 81 -24 77 -27 -4 -4 -91 -69 -193 -145 -102 -76 -191 -142 -197 -148
-10 -7 -13 33 -13 196 0 187 2 206 18 210 35 9 49 6 136 -29z m1122 23 c3 -2
3 -95 2 -205 l-3 -201 -177 133 c-97 74 -188 143 -202 153 l-25 20 83 21 c46
11 121 36 167 56 58 24 94 34 118 31 18 -2 35 -6 37 -8z m-1576 -395 c0 -331
0 -339 23 -382 39 -76 134 -103 206 -59 19 11 186 135 372 276 229 173 342
252 351 247 7 -5 160 -119 339 -255 180 -136 342 -257 360 -268 72 -44 167
-17 207 59 22 43 22 51 22 382 0 305 2 338 16 338 43 0 635 -115 681 -132 73
-27 165 -90 216 -149 81 -93 102 -150 193 -542 46 -199 84 -368 84 -374 0 -10
-433 -13 -2130 -13 -1697 0 -2130 3 -2130 13 0 6 38 175 84 374 98 420 113
460 217 564 109 110 161 130 504 194 363 67 336 62 363 64 l22 1 0 -338z"/>
</g>
</svg>
