<svg version="1.0" xmlns="http://www.w3.org/2000/svg"
 width="512.000000pt" height="512.000000pt" viewBox="0 0 512.000000 512.000000"
 preserveAspectRatio="xMidYMid meet">

<g transform="translate(0.000000,512.000000) scale(0.100000,-0.100000)"
fill="#ffffff" stroke="none">
<path d="M2300 4759 l-255 -360 -105 -33 c-58 -18 -246 -77 -417 -131 -172
-54 -313 -102 -313 -107 0 -5 86 -124 191 -264 104 -141 188 -258 185 -261 -2
-3 -37 -9 -78 -14 -314 -39 -597 -178 -828 -409 -269 -268 -411 -611 -411
-994 0 -193 27 -342 94 -516 156 -410 529 -742 960 -854 137 -36 236 -46 444
-46 l183 0 0 -380 c0 -248 3 -380 10 -380 6 0 261 171 567 380 l558 380 230 0
c321 0 471 25 672 110 310 133 570 375 720 673 50 100 110 286 128 400 20 128
20 342 -1 465 -74 440 -354 823 -749 1024 -131 66 -297 122 -415 138 -47 6
-99 15 -117 18 l-31 7 193 260 c107 143 194 263 195 266 0 3 -186 63 -412 134
-227 70 -419 133 -425 138 -7 5 -121 161 -252 346 -132 185 -245 344 -253 353
-11 15 -43 -25 -268 -343z m425 -394 l155 -220 270 -86 271 -86 -166 -222
-165 -223 0 -284 c0 -156 -2 -284 -4 -284 -2 0 -121 40 -265 89 l-262 89 -267
-89 c-147 -49 -267 -89 -268 -89 -1 0 0 125 3 278 l6 279 -162 218 c-90 120
-165 223 -167 229 -3 7 85 39 233 85 131 40 252 79 268 86 22 9 72 71 190 238
88 124 163 223 167 219 4 -4 77 -106 163 -227z m-1003 -1445 c-3 -209 -2 -380
1 -380 3 0 191 63 419 140 l414 140 419 -140 c231 -77 420 -140 420 -140 0 0
-2 172 -4 382 l-3 381 103 -6 c221 -13 407 -76 586 -199 84 -58 232 -208 286
-291 89 -134 153 -297 177 -449 18 -110 8 -341 -18 -440 -87 -326 -292 -581
-584 -729 -192 -97 -318 -119 -680 -119 l-268 0 -359 -245 c-197 -135 -362
-245 -365 -245 -3 0 -7 109 -8 243 l-3 242 -370 6 c-381 7 -409 9 -549 55
-393 127 -690 475 -756 886 -18 110 -8 341 18 440 57 213 143 362 300 521 153
155 369 270 577 306 97 17 107 18 180 20 l71 1 -4 -380z"/>
<path d="M1700 2040 l0 -150 155 0 155 0 0 150 0 150 -155 0 -155 0 0 -150z"/>
<path d="M2400 2040 l0 -150 160 0 160 0 0 150 0 150 -160 0 -160 0 0 -150z"/>
<path d="M3100 2040 l0 -150 160 0 160 0 0 150 0 150 -160 0 -160 0 0 -150z"/>
</g>
</svg>
