<svg version="1.0" xmlns="http://www.w3.org/2000/svg"
 width="512.000000pt" height="512.000000pt" viewBox="0 0 512.000000 512.000000"
 preserveAspectRatio="xMidYMid meet">

<g transform="translate(0.000000,512.000000) scale(0.100000,-0.100000)"
fill="#ffffff" stroke="none">
<path d="M2385 4909 c-488 -63 -918 -418 -1075 -887 -51 -155 -65 -241 -65
-422 0 -179 19 -297 72 -444 129 -362 427 -661 792 -796 150 -55 268 -75 451
-75 241 0 404 40 611 147 349 181 593 503 680 899 31 136 33 388 6 519 -147
694 -777 1147 -1472 1059z m440 -263 c232 -60 452 -205 596 -395 72 -95 154
-267 184 -386 91 -357 -8 -737 -262 -1006 -267 -282 -672 -400 -1048 -304
-119 30 -292 112 -386 184 -189 144 -333 361 -396 596 -23 89 -26 118 -26 265
0 147 3 176 26 265 32 119 116 294 186 386 167 220 428 375 707 419 104 16
307 4 419 -24z"/>
<path d="M2460 4371 l0 -80 -42 -12 c-102 -27 -189 -95 -236 -184 -24 -45 -27
-61 -27 -150 0 -82 4 -109 22 -147 45 -98 133 -159 358 -248 105 -42 189 -93
222 -137 39 -50 43 -141 11 -198 -35 -60 -96 -90 -183 -90 -108 0 -183 49
-265 174 l-15 23 -94 -35 c-51 -20 -95 -38 -98 -41 -13 -13 62 -137 115 -190
55 -56 174 -126 213 -126 17 0 19 -9 19 -85 l0 -85 110 0 110 0 0 80 0 79 43
12 c171 45 283 178 294 350 15 211 -85 343 -342 448 -166 68 -247 113 -272
150 -28 41 -31 115 -7 150 37 53 148 76 237 49 40 -12 104 -65 124 -102 10
-18 13 -18 103 9 51 16 94 35 97 42 7 18 -31 93 -73 141 -38 45 -102 87 -162
108 l-37 12 -5 79 -5 78 -107 3 -108 3 0 -80z"/>
<path d="M115 2190 c-11 -4 -31 -20 -45 -35 l-25 -27 -3 -882 -2 -883 23 -34
c37 -55 57 -58 420 -58 348 -1 377 2 409 47 l14 21 159 -24 c760 -111 1605
-109 2193 6 242 47 419 103 572 179 115 58 555 320 890 530 85 54 169 104 185
113 40 20 118 104 143 153 93 182 14 404 -173 491 -51 24 -72 27 -145 27 l-85
-1 -595 -241 c-327 -132 -596 -239 -598 -238 -1 2 -9 29 -17 61 -34 128 -119
231 -242 292 -64 32 -83 36 -195 44 -155 11 -260 31 -406 75 -127 38 -379 129
-542 194 -126 50 -233 75 -400 91 -141 13 -416 6 -600 -15 -63 -8 -118 -12
-122 -9 -5 2 -8 15 -8 29 0 14 -7 36 -16 50 -35 53 -45 54 -421 53 -191 0
-357 -4 -368 -9z m565 -960 l0 -720 -200 0 -200 0 0 720 0 720 200 0 200 0 0
-720z m990 620 c123 -15 174 -30 396 -115 452 -174 710 -245 889 -245 33 0 76
-5 96 -10 84 -23 149 -98 149 -172 l0 -38 -485 0 c-536 0 -537 0 -575 -62 -24
-39 -25 -78 -5 -118 32 -61 18 -60 650 -60 l576 0 671 270 c464 187 682 270
708 270 48 0 86 -30 101 -80 10 -33 9 -44 -8 -77 -23 -44 -156 -132 -663 -437
-357 -215 -463 -273 -585 -319 -539 -204 -1577 -244 -2527 -96 l-138 21 0 618
0 617 38 6 c46 7 222 26 282 30 110 8 353 6 430 -3z"/>
</g>
</svg>
